<?xml version="1.0" encoding="UTF-8"?>
<!DOCTYPE svg PUBLIC "-//W3C//DTD SVG 1.1//EN" "http://www.w3.org/Graphics/SVG/1.1/DTD/svg11.dtd">
<!-- Creator: CorelDRAW 2020 (64-Bit) -->
<svg xmlns="http://www.w3.org/2000/svg" xml:space="preserve" width="374px" height="374px" version="1.1" style="shape-rendering:geometricPrecision; text-rendering:geometricPrecision; image-rendering:optimizeQuality; fill-rule:evenodd; clip-rule:evenodd"
viewBox="0 0 12.12 12.12"
 xmlns:xlink="http://www.w3.org/1999/xlink"
 xmlns:xodm="http://www.corel.com/coreldraw/odm/2003">
 <defs>
  <style type="text/css">
   <![CDATA[
    .fil8 {fill:none}
    .fil6 {fill:#CCC016}
    .fil5 {fill:#FFFF01}
    .fil2 {fill:#097A44;fill-rule:nonzero}
    .fil3 {fill:#195EAB;fill-rule:nonzero}
    .fil1 {fill:#9F5234;fill-rule:nonzero}
    .fil4 {fill:#F0A53A;fill-rule:nonzero}
    .fil7 {fill:red;fill-rule:nonzero}
    .fil0 {fill:white;fill-rule:nonzero}
   ]]>
  </style>
 </defs>
 <g id="Layer_x0020_1">
  <metadata id="CorelCorpID_0Corel-Layer"/>
  <g id="_2537530906448">
   <g>
    <g>
     <path class="fil0" d="M3.04 4.99l-0.17 -0.18 0 0.01 0.02 -0.03 0.02 -0.02 0.02 -0.02 0.02 -0.02 0.02 -0.02 0.01 -0.02 0.02 -0.03 0.02 -0.02 0.01 -0.02 0.02 -0.02 0.01 -0.03 0.01 -0.02 0.02 -0.03 0.01 -0.02 0.01 -0.02 0.01 -0.03 0.01 -0.02 0.01 -0.03 0.01 -0.03 0.01 -0.02 0 -0.03 0.01 -0.02 0.01 -0.03 0 -0.03 0.01 -0.03 0 -0.03 0 -0.02 0.01 -0.03 0 -0.03 0 -0.03 0 -0.03 0 -0.03 0.24 0 0 0.03 0 0.04 0 0.03 0 0.04 -0.01 0.03 0 0.04 -0.01 0.03 0 0.04 -0.01 0.03 -0.01 0.03 -0.01 0.03 -0.01 0.04 -0.01 0.03 -0.01 0.03 -0.01 0.03 -0.01 0.03 -0.01 0.03 -0.02 0.03 -0.01 0.03 -0.02 0.03 -0.01 0.03 -0.02 0.03 -0.02 0.03 -0.02 0.03 -0.02 0.03 -0.02 0.02 -0.02 0.03 -0.02 0.03 -0.02 0.02 -0.03 0.03 -0.02 0.02 -0.02 0.03 0 0zm-0.99 0.39l0 -0.24 0 0 0.03 0 0.03 0 0.03 0 0.03 -0.01 0.03 0 0.03 0 0.03 -0.01 0.03 0 0.03 -0.01 0.02 0 0.03 -0.01 0.03 -0.01 0.02 -0.01 0.03 0 0.02 -0.01 0.03 -0.01 0.02 -0.01 0.03 -0.01 0.02 -0.02 0.03 -0.01 0.02 -0.01 0.03 -0.01 0.02 -0.02 0.02 -0.01 0.03 -0.02 0.02 -0.01 0.02 -0.02 0.02 -0.02 0.02 -0.02 0.03 -0.02 0.02 -0.02 0.02 -0.02 0.17 0.18 -0.03 0.02 -0.03 0.02 -0.02 0.03 -0.03 0.02 -0.02 0.02 -0.03 0.02 -0.03 0.02 -0.03 0.02 -0.02 0.02 -0.03 0.01 -0.03 0.02 -0.03 0.02 -0.03 0.01 -0.03 0.01 -0.03 0.02 -0.03 0.01 -0.03 0.01 -0.03 0.01 -0.04 0.01 -0.03 0.01 -0.03 0.01 -0.03 0.01 -0.04 0.01 -0.03 0 -0.03 0.01 -0.04 0 -0.03 0.01 -0.04 0 -0.03 0.01 -0.03 0 -0.04 0 -0.04 0 0 0zm-0.96 -0.39l0.16 -0.17 0 0 0.02 0.02 0.03 0.02 0.02 0.02 0.02 0.02 0.02 0.01 0.02 0.02 0.03 0.01 0.02 0.02 0.02 0.01 0.03 0.02 0.02 0.01 0.02 0.01 0.03 0.02 0.02 0.01 0.03 0.01 0.02 0.01 0.02 0.01 0.03 0.01 0.03 0.01 0.02 0 0.03 0.01 0.02 0.01 0.03 0 0.03 0.01 0.02 0 0.03 0.01 0.03 0 0.03 0 0.03 0.01 0.03 0 0.03 0 0.02 0 0 0.24 -0.03 0 -0.03 0 -0.04 0 -0.03 -0.01 -0.04 0 -0.03 0 -0.03 -0.01 -0.04 -0.01 -0.03 0 -0.03 -0.01 -0.03 -0.01 -0.03 -0.01 -0.04 0 -0.03 -0.02 -0.03 -0.01 -0.03 -0.01 -0.03 -0.01 -0.03 -0.01 -0.03 -0.02 -0.03 -0.01 -0.03 -0.02 -0.02 -0.01 -0.03 -0.02 -0.03 -0.02 -0.03 -0.02 -0.03 -0.02 -0.02 -0.02 -0.03 -0.02 -0.03 -0.02 -0.02 -0.02 -0.03 -0.02 -0.02 -0.03 0 0zm-0.41 -0.95l0.23 0 0 0 0 0.03 0.01 0.03 0 0.02 0 0.03 0 0.03 0.01 0.03 0 0.03 0.01 0.02 0 0.03 0.01 0.02 0 0.03 0.01 0.03 0.01 0.02 0.01 0.03 0.01 0.02 0.01 0.02 0.01 0.03 0.01 0.02 0.01 0.03 0.02 0.02 0.01 0.02 0.01 0.02 0.02 0.03 0.01 0.02 0.02 0.02 0.02 0.02 0.01 0.02 0.02 0.03 0.02 0.02 0.02 0.02 0.02 0.02 0.02 0.02 -0.16 0.17 -0.03 -0.02 -0.02 -0.02 -0.02 -0.03 -0.03 -0.02 -0.02 -0.03 -0.02 -0.03 -0.02 -0.02 -0.02 -0.03 -0.02 -0.03 -0.02 -0.03 -0.02 -0.02 -0.01 -0.03 -0.02 -0.03 -0.01 -0.03 -0.02 -0.03 -0.01 -0.03 -0.01 -0.03 -0.02 -0.03 -0.01 -0.03 -0.01 -0.03 -0.01 -0.03 0 -0.04 -0.01 -0.03 -0.01 -0.03 0 -0.03 -0.01 -0.04 0 -0.03 -0.01 -0.03 0 -0.04 0 -0.03 0 -0.04 0 -0.03 0 0zm0.1 -0.56l0.22 0.09 0 0 -0.01 0.01 0 0.02 -0.01 0.01 0 0.01 0 0.02 -0.01 0.01 0 0.02 -0.01 0.01 0 0.01 0 0.02 -0.01 0.01 0 0.02 -0.01 0.01 0 0.02 0 0.01 0 0.01 -0.01 0.02 0 0.01 0 0.02 0 0.01 -0.01 0.02 0 0.01 0 0.02 0 0.01 0 0.02 0 0.02 0 0.01 0 0.02 0 0.01 -0.01 0.02 0 0.01 0 0.02 -0.23 0 0 -0.02 0 -0.02 0 -0.02 0 -0.01 0 -0.02 0 -0.02 0 -0.02 0 -0.02 0 -0.01 0.01 -0.02 0 -0.02 0 -0.02 0 -0.02 0 -0.01 0.01 -0.02 0 -0.02 0 -0.02 0.01 -0.01 0 -0.02 0 -0.02 0.01 -0.01 0 -0.02 0.01 -0.02 0 -0.02 0.01 -0.01 0 -0.02 0.01 -0.02 0 -0.01 0.01 -0.02 0 -0.02 0.01 -0.01 0.01 -0.02 0 0zm0.17 -0.3l0.19 0.15 0 0 -0.01 0.01 0 0 -0.01 0.01 0 0.01 -0.01 0.01 -0.01 0.01 0 0 -0.01 0.01 0 0.01 -0.01 0.01 0 0 -0.01 0.01 0 0.01 -0.01 0.01 0 0.01 0 0 -0.01 0.01 0 0.01 -0.01 0.01 0 0 -0.01 0.01 0 0.01 0 0 -0.01 0.01 0 0.01 0 0.01 -0.01 0 0 0.01 0 0.01 0 0 -0.01 0.01 0 0.01 -0.22 -0.09 0 -0.01 0 -0.01 0.01 -0.01 0 -0.01 0.01 -0.01 0 0 0 -0.01 0.01 -0.01 0 -0.01 0.01 -0.01 0 -0.01 0.01 -0.01 0 -0.01 0.01 -0.01 0 -0.01 0.01 -0.01 0 -0.01 0.01 -0.01 0.01 -0.01 0 -0.01 0.01 -0.01 0 0 0.01 -0.01 0.01 -0.01 0 -0.01 0.01 -0.01 0.01 -0.01 0 -0.01 0.01 -0.01 0.01 -0.01 0 -0.01 0.01 -0.01 0 0zm1.11 -0.54l0 0.24 0 0 -0.04 0 -0.04 0 -0.03 0 -0.04 0.01 -0.03 0 -0.03 0.01 -0.04 0 -0.03 0.01 -0.03 0.01 -0.03 0 -0.04 0.01 -0.03 0.01 -0.03 0.01 -0.03 0.02 -0.02 0.01 -0.03 0.01 -0.03 0.02 -0.03 0.01 -0.03 0.02 -0.02 0.01 -0.03 0.02 -0.02 0.02 -0.03 0.02 -0.03 0.02 -0.02 0.02 -0.02 0.02 -0.03 0.03 -0.02 0.02 -0.02 0.03 -0.03 0.02 -0.02 0.03 -0.02 0.03 -0.19 -0.15 0.02 -0.03 0.03 -0.03 0.03 -0.03 0.03 -0.03 0.02 -0.03 0.03 -0.03 0.03 -0.03 0.03 -0.02 0.03 -0.03 0.03 -0.02 0.03 -0.03 0.04 -0.02 0.03 -0.02 0.03 -0.02 0.04 -0.02 0.03 -0.01 0.04 -0.02 0.03 -0.02 0.04 -0.01 0.04 -0.01 0.03 -0.02 0.04 -0.01 0.04 -0.01 0.04 -0.01 0.04 0 0.04 -0.01 0.04 -0.01 0.04 0 0.04 -0.01 0.04 0 0.05 0 0.04 0 0 0zm0.98 0.39l-0.17 0.18 0 0 -0.02 -0.03 -0.02 -0.01 -0.03 -0.02 -0.02 -0.02 -0.02 -0.02 -0.02 -0.02 -0.02 -0.01 -0.03 -0.02 -0.02 -0.01 -0.02 -0.02 -0.03 -0.01 -0.02 -0.01 -0.02 -0.02 -0.03 -0.01 -0.02 -0.01 -0.03 -0.01 -0.02 -0.01 -0.03 -0.01 -0.03 -0.01 -0.02 0 -0.03 -0.01 -0.03 -0.01 -0.02 0 -0.03 -0.01 -0.03 0 -0.03 -0.01 -0.02 0 -0.03 0 -0.03 -0.01 -0.03 0 -0.03 0 -0.03 0 0 -0.24 0.03 0 0.04 0 0.03 0 0.04 0.01 0.03 0 0.04 0 0.03 0.01 0.03 0 0.04 0.01 0.03 0.01 0.03 0.01 0.03 0 0.04 0.01 0.03 0.01 0.03 0.02 0.03 0.01 0.03 0.01 0.03 0.01 0.03 0.02 0.03 0.01 0.03 0.02 0.03 0.02 0.03 0.01 0.02 0.02 0.03 0.02 0.03 0.02 0.03 0.02 0.02 0.02 0.03 0.02 0.03 0.03 0.02 0.02 0.03 0.02 0 0zm0.4 0.98l-0.24 0 0 0 0 -0.03 0 -0.03 0 -0.03 0 -0.03 -0.01 -0.03 0 -0.03 0 -0.03 -0.01 -0.02 0 -0.03 -0.01 -0.03 -0.01 -0.02 0 -0.03 -0.01 -0.03 -0.01 -0.02 -0.01 -0.03 -0.01 -0.02 -0.01 -0.03 -0.01 -0.02 -0.01 -0.03 -0.02 -0.02 -0.01 -0.02 -0.01 -0.03 -0.02 -0.02 -0.01 -0.02 -0.02 -0.02 -0.02 -0.03 -0.01 -0.02 -0.02 -0.02 -0.02 -0.02 -0.02 -0.02 -0.02 -0.02 -0.02 -0.02 0.17 -0.18 0.02 0.03 0.02 0.02 0.03 0.03 0.02 0.02 0.02 0.03 0.02 0.03 0.02 0.02 0.02 0.03 0.02 0.03 0.02 0.03 0.02 0.03 0.01 0.03 0.02 0.02 0.01 0.03 0.02 0.03 0.01 0.04 0.01 0.03 0.01 0.03 0.01 0.03 0.01 0.03 0.01 0.03 0.01 0.04 0.01 0.03 0.01 0.03 0 0.04 0.01 0.03 0 0.03 0.01 0.04 0 0.03 0 0.04 0 0.03 0 0.04 0 0zm-1 -0.41l0.18 -0.16 0 0 0.02 0.01 0.01 0.02 0.01 0.01 0.01 0.02 0.01 0.01 0.01 0.02 0.01 0.02 0.01 0.01 0.01 0.02 0.01 0.02 0.01 0.01 0.01 0.02 0.01 0.02 0 0.02 0.01 0.01 0.01 0.02 0.01 0.02 0 0.02 0.01 0.02 0 0.02 0.01 0.01 0 0.02 0 0.02 0.01 0.02 0 0.02 0 0.02 0.01 0.02 0 0.02 0 0.02 0 0.02 0 0.02 0 0.02 -0.24 0 0 -0.01 0 -0.02 0 -0.02 0 -0.01 0 -0.02 0 -0.01 -0.01 -0.01 0 -0.02 0 -0.01 0 -0.02 -0.01 -0.01 0 -0.01 0 -0.02 -0.01 -0.01 0 -0.01 -0.01 -0.02 0 -0.01 -0.01 -0.01 0 -0.02 -0.01 -0.01 0 -0.01 -0.01 -0.01 -0.01 -0.01 0 -0.02 -0.01 -0.01 -0.01 -0.01 0 -0.01 -0.01 -0.01 -0.01 -0.01 -0.01 -0.01 -0.01 -0.01 -0.01 -0.02 0 0.01zm-0.38 -0.18l0 -0.24 0 0 0.02 0 0.02 0 0.02 0 0.02 0 0.02 0.01 0.02 0 0.02 0 0.02 0.01 0.02 0 0.02 0 0.02 0.01 0.02 0.01 0.02 0 0.01 0.01 0.02 0.01 0.02 0 0.02 0.01 0.02 0.01 0.01 0.01 0.02 0.01 0.02 0.01 0.01 0.01 0.02 0.01 0.02 0.02 0.01 0.01 0.02 0.01 0.01 0.01 0.02 0.02 0.01 0.01 0.02 0.02 0.01 0.01 0.01 0.02 -0.18 0.16 -0.01 -0.02 -0.01 -0.01 -0.01 -0.01 -0.01 -0.01 -0.01 -0.01 -0.01 -0.01 -0.01 0 -0.01 -0.01 -0.01 -0.01 -0.01 -0.01 -0.01 -0.01 -0.01 0 -0.01 -0.01 -0.02 -0.01 -0.01 0 -0.01 -0.01 -0.01 0 -0.01 -0.01 -0.01 0 -0.02 -0.01 -0.01 0 -0.01 0 -0.01 -0.01 -0.02 0 -0.01 0 -0.01 0 -0.02 -0.01 -0.01 0 -0.02 0 -0.01 0 -0.01 0 -0.02 0 0 0zm-0.38 0.17l-0.18 -0.16 0 0 0.01 -0.02 0.02 -0.01 0.01 -0.01 0.01 -0.02 0.02 -0.01 0.01 -0.01 0.02 -0.02 0.02 -0.01 0.01 -0.01 0.02 -0.01 0.01 -0.01 0.02 -0.01 0.02 -0.01 0.02 -0.01 0.01 -0.01 0.02 -0.01 0.02 -0.01 0.02 0 0.01 -0.01 0.02 -0.01 0.02 0 0.02 -0.01 0.02 0 0.02 0 0.02 -0.01 0.02 0 0.02 0 0.02 -0.01 0.02 0 0.02 0 0.02 0 0.02 0 0 0.24 -0.01 0 -0.02 0 -0.01 0 -0.02 0 -0.01 0 -0.02 0.01 -0.01 0 -0.01 0 -0.02 0 -0.01 0.01 -0.01 0 -0.02 0 -0.01 0.01 -0.01 0 -0.01 0.01 -0.01 0 -0.02 0.01 -0.01 0 -0.01 0.01 -0.01 0.01 -0.01 0 -0.01 0.01 -0.01 0.01 -0.01 0 -0.01 0.01 -0.01 0.01 -0.01 0.01 -0.01 0.01 -0.01 0.01 -0.01 0.01 -0.01 0.01 -0.01 0.01 0 0zm-0.15 0.41l-0.24 0 0 0 0 -0.02 0 -0.02 0 -0.02 0 -0.02 0 -0.02 0 -0.02 0.01 -0.02 0 -0.02 0 -0.02 0.01 -0.02 0 -0.02 0.01 -0.01 0 -0.02 0.01 -0.02 0 -0.02 0.01 -0.02 0.01 -0.02 0 -0.01 0.01 -0.02 0.01 -0.02 0.01 -0.02 0.01 -0.01 0.01 -0.02 0.01 -0.02 0.01 -0.01 0.01 -0.02 0.01 -0.01 0.01 -0.02 0.01 -0.02 0.01 -0.01 0.02 -0.02 0.01 -0.01 0.18 0.16 -0.01 0.01 -0.01 0.01 -0.01 0.01 -0.01 0.01 -0.01 0.01 -0.01 0.02 0 0.01 -0.01 0.01 -0.01 0.01 0 0.01 -0.01 0.01 -0.01 0.02 0 0.01 -0.01 0.01 0 0.01 -0.01 0.01 0 0.02 0 0.01 -0.01 0.01 0 0.02 -0.01 0.01 0 0.01 0 0.02 0 0.01 -0.01 0.02 0 0.01 0 0.02 0 0.01 0 0.02 0 0.01 0 0.02 0 0.01 0 0zm0.15 0.42l-0.18 0.16 0 0 -0.01 -0.01 -0.02 -0.02 -0.01 -0.01 -0.01 -0.02 -0.01 -0.01 -0.01 -0.02 -0.01 -0.02 -0.01 -0.01 -0.01 -0.02 -0.01 -0.02 -0.01 -0.01 -0.01 -0.02 -0.01 -0.02 -0.01 -0.02 0 -0.01 -0.01 -0.02 -0.01 -0.02 0 -0.02 -0.01 -0.02 0 -0.02 -0.01 -0.02 0 -0.02 -0.01 -0.02 0 -0.02 0 -0.02 -0.01 -0.02 0 -0.02 0 -0.02 0 -0.02 0 -0.02 0 -0.02 0 -0.02 0.24 0 0 0.02 0 0.01 0 0.02 0 0.02 0 0.01 0 0.02 0 0.01 0.01 0.02 0 0.01 0 0.01 0 0.02 0.01 0.01 0 0.02 0.01 0.01 0 0.01 0 0.01 0.01 0.02 0 0.01 0.01 0.01 0.01 0.02 0 0.01 0.01 0.01 0 0.01 0.01 0.01 0.01 0.02 0.01 0.01 0 0.01 0.01 0.01 0.01 0.01 0.01 0.01 0.01 0.01 0.01 0.01 0 0zm0.39 0.18l0 0.24 0 0 -0.02 0 -0.02 0 -0.03 0 -0.02 -0.01 -0.02 0 -0.02 0 -0.02 0 -0.02 -0.01 -0.02 0 -0.01 -0.01 -0.02 0 -0.02 -0.01 -0.02 0 -0.02 -0.01 -0.02 -0.01 -0.02 -0.01 -0.01 0 -0.02 -0.01 -0.02 -0.01 -0.02 -0.01 -0.01 -0.01 -0.02 -0.01 -0.02 -0.01 -0.01 -0.02 -0.02 -0.01 -0.01 -0.01 -0.02 -0.01 -0.01 -0.02 -0.02 -0.01 -0.01 -0.02 -0.02 -0.01 -0.01 -0.02 0.18 -0.16 0.01 0.02 0.01 0.01 0.01 0.01 0.01 0.01 0.01 0.01 0.01 0 0.01 0.01 0.01 0.01 0.01 0.01 0.01 0.01 0.01 0 0.01 0.01 0.02 0.01 0.01 0 0.01 0.01 0.01 0 0.01 0.01 0.01 0 0.02 0.01 0.01 0 0.01 0.01 0.02 0 0.01 0 0.01 0.01 0.02 0 0.01 0 0.01 0 0.02 0.01 0.01 0 0.02 0 0.01 0 0.02 0 0 0zm0.37 -0.18l0.18 0.16 0 0 -0.01 0.02 -0.01 0.01 -0.02 0.02 -0.01 0.01 -0.02 0.01 -0.01 0.02 -0.02 0.01 -0.01 0.01 -0.02 0.01 -0.01 0.02 -0.02 0.01 -0.02 0.01 -0.01 0.01 -0.02 0.01 -0.02 0 -0.02 0.01 -0.01 0.01 -0.02 0.01 -0.02 0.01 -0.02 0 -0.02 0.01 -0.02 0 -0.02 0.01 -0.01 0 -0.02 0.01 -0.02 0 -0.02 0 -0.02 0 -0.02 0.01 -0.02 0 -0.02 0 -0.02 0 0 -0.24 0.01 0 0.02 0 0.01 0 0.01 0 0.02 -0.01 0.01 0 0.01 0 0.02 0 0.01 -0.01 0.01 0 0.01 0 0.02 -0.01 0.01 0 0.01 0 0.01 -0.01 0.01 0 0.01 -0.01 0.02 -0.01 0.01 0 0.01 -0.01 0.01 -0.01 0.01 0 0.01 -0.01 0.01 -0.01 0.01 -0.01 0.01 -0.01 0.01 0 0.01 -0.01 0.01 -0.01 0.01 -0.01 0.01 -0.02 0.01 -0.01 0 0zm0.15 -0.41l0.24 0 0 0 0 0.02 0 0.02 0 0.02 0 0.02 0 0.02 -0.01 0.02 0 0.02 0 0.02 -0.01 0.02 0 0.02 0 0.02 -0.01 0.01 0 0.02 -0.01 0.02 -0.01 0.02 0 0.02 -0.01 0.02 -0.01 0.01 0 0.02 -0.01 0.02 -0.01 0.02 -0.01 0.01 -0.01 0.02 -0.01 0.02 -0.01 0.01 -0.01 0.02 -0.01 0.01 -0.01 0.02 -0.01 0.02 -0.01 0.01 -0.01 0.02 -0.02 0.01 -0.18 -0.16 0.01 -0.01 0.01 -0.01 0.01 -0.01 0.01 -0.01 0.01 -0.01 0 -0.01 0.01 -0.01 0.01 -0.02 0 -0.01 0.01 -0.01 0.01 -0.01 0 -0.01 0.01 -0.02 0 -0.01 0.01 -0.01 0 -0.01 0.01 -0.02 0 -0.01 0.01 -0.01 0 -0.02 0 -0.01 0.01 -0.01 0 -0.02 0 -0.01 0 -0.01 0.01 -0.02 0 -0.01 0 -0.02 0 -0.01 0 -0.02 0 -0.01 0 -0.02 0 0z"/>
    </g>
    <path id="1" class="fil1" d="M3.32 4.01c0,0.35 -0.12,0.65 -0.37,0.89 -0.24,0.24 -0.54,0.36 -0.9,0.36 -0.34,0 -0.63,-0.12 -0.88,-0.35 -0.25,-0.24 -0.37,-0.53 -0.37,-0.87 0,-0.18 0.03,-0.35 0.09,-0.52 0.03,-0.08 0.08,-0.17 0.15,-0.27 0.25,-0.33 0.59,-0.49 1.02,-0.49 0.35,0 0.65,0.12 0.89,0.36 0.25,0.24 0.37,0.54 0.37,0.89zm-0.61 0c0,-0.19 -0.06,-0.36 -0.18,-0.49 -0.12,-0.15 -0.28,-0.22 -0.47,-0.22 -0.19,0 -0.35,0.07 -0.47,0.21 -0.12,0.13 -0.18,0.3 -0.18,0.49 0,0.2 0.06,0.37 0.18,0.5 0.12,0.15 0.28,0.22 0.48,0.22 0.18,0 0.34,-0.07 0.46,-0.22 0.12,-0.13 0.18,-0.3 0.18,-0.49z"/>
    <g>
     <path class="fil0" d="M5.75 5.09l-0.14 -0.19 0 0 0.01 -0.01 0.02 -0.02 0.02 -0.01 0.02 -0.02 0.02 -0.02 0.01 -0.01 0.02 -0.02 0.01 -0.02 0.02 -0.01 0.02 -0.02 0.01 -0.02 0.01 -0.02 0.02 -0.01 0.01 -0.02 0.01 -0.02 0.02 -0.02 0.01 -0.02 0.01 -0.02 0.01 -0.02 0.01 -0.02 0.01 -0.02 0.01 -0.02 0.01 -0.02 0.01 -0.02 0.01 -0.03 0.01 -0.02 0.01 -0.02 0.01 -0.02 0 -0.03 0.01 -0.02 0.01 -0.02 0 -0.03 0.24 0.06 -0.01 0.03 -0.01 0.03 -0.01 0.03 -0.01 0.02 -0.01 0.03 -0.01 0.03 -0.01 0.02 -0.01 0.03 -0.01 0.03 -0.01 0.02 -0.01 0.03 -0.02 0.02 -0.01 0.03 -0.01 0.02 -0.02 0.03 -0.01 0.02 -0.02 0.02 -0.01 0.03 -0.02 0.02 -0.02 0.02 -0.01 0.02 -0.02 0.03 -0.02 0.02 -0.02 0.02 -0.02 0.02 -0.02 0.02 -0.02 0.02 -0.02 0.02 -0.02 0.02 -0.02 0.02 -0.03 0.01 -0.02 0.02 0 0zm-0.84 0.29l0 -0.24 0 0 0.02 0 0.03 0 0.02 0 0.03 -0.01 0.02 0 0.03 0 0.02 0 0.02 -0.01 0.03 0 0.02 0 0.02 -0.01 0.02 0 0.03 -0.01 0.02 -0.01 0.02 0 0.02 -0.01 0.02 -0.01 0.02 -0.01 0.03 0 0.02 -0.01 0.02 -0.01 0.02 -0.01 0.02 -0.01 0.02 -0.01 0.02 -0.02 0.02 -0.01 0.02 -0.01 0.02 -0.01 0.02 -0.01 0.02 -0.02 0.02 -0.01 0.02 -0.02 0.14 0.19 -0.02 0.02 -0.02 0.02 -0.03 0.01 -0.02 0.02 -0.02 0.01 -0.03 0.02 -0.02 0.01 -0.03 0.02 -0.02 0.01 -0.03 0.01 -0.02 0.02 -0.03 0.01 -0.02 0.01 -0.03 0.01 -0.03 0.01 -0.02 0.01 -0.03 0.01 -0.03 0 -0.02 0.01 -0.03 0.01 -0.03 0 -0.02 0.01 -0.03 0.01 -0.03 0 -0.03 0.01 -0.03 0 -0.03 0 -0.02 0 -0.03 0.01 -0.03 0 -0.03 0 -0.03 0 0 0zm-0.98 -0.4l0.17 -0.17 0 0 0.02 0.02 0.02 0.02 0.02 0.02 0.03 0.02 0.02 0.02 0.02 0.01 0.02 0.02 0.03 0.01 0.02 0.02 0.02 0.01 0.03 0.02 0.02 0.01 0.02 0.01 0.03 0.01 0.02 0.02 0.03 0.01 0.02 0.01 0.03 0.01 0.02 0 0.03 0.01 0.03 0.01 0.02 0.01 0.03 0 0.03 0.01 0.03 0 0.02 0.01 0.03 0 0.03 0 0.03 0.01 0.03 0 0.03 0 0.03 0 0 0.24 -0.04 0 -0.03 0 -0.04 0 -0.03 -0.01 -0.03 0 -0.04 -0.01 -0.03 0 -0.04 -0.01 -0.03 0 -0.03 -0.01 -0.03 -0.01 -0.04 -0.01 -0.03 -0.01 -0.03 -0.01 -0.03 -0.01 -0.03 -0.01 -0.03 -0.01 -0.03 -0.02 -0.03 -0.01 -0.03 -0.02 -0.03 -0.01 -0.03 -0.02 -0.03 -0.02 -0.03 -0.02 -0.02 -0.01 -0.03 -0.02 -0.03 -0.02 -0.02 -0.03 -0.03 -0.02 -0.03 -0.02 -0.02 -0.02 -0.03 -0.03 0 0zm-0.4 -0.98l0.24 0 0 0 0 0.04 0 0.02 0 0.03 0 0.03 0 0.03 0.01 0.03 0 0.03 0.01 0.03 0 0.02 0.01 0.03 0.01 0.03 0 0.02 0.01 0.03 0.01 0.02 0.01 0.03 0.01 0.03 0.01 0.02 0.01 0.02 0.01 0.03 0.02 0.02 0.01 0.03 0.01 0.02 0.02 0.02 0.01 0.03 0.02 0.02 0.02 0.02 0.01 0.02 0.02 0.03 0.02 0.02 0.02 0.02 0.02 0.02 0.02 0.02 -0.17 0.17 -0.02 -0.02 -0.03 -0.03 -0.02 -0.02 -0.02 -0.03 -0.02 -0.03 -0.02 -0.02 -0.02 -0.03 -0.02 -0.03 -0.02 -0.03 -0.02 -0.02 -0.02 -0.03 -0.01 -0.03 -0.02 -0.03 -0.01 -0.03 -0.02 -0.03 -0.01 -0.03 -0.01 -0.03 -0.02 -0.03 -0.01 -0.04 -0.01 -0.03 -0.01 -0.03 0 -0.03 -0.01 -0.04 -0.01 -0.03 0 -0.03 -0.01 -0.04 0 -0.03 -0.01 -0.03 0 -0.04 0 -0.03 0 -0.04 0 -0.04 0 0zm0.4 -0.97l0.17 0.17 0 0 -0.02 0.02 -0.02 0.03 -0.02 0.02 -0.02 0.02 -0.02 0.02 -0.02 0.02 -0.01 0.02 -0.02 0.03 -0.01 0.02 -0.02 0.02 -0.01 0.03 -0.02 0.02 -0.01 0.02 -0.01 0.03 -0.01 0.02 -0.01 0.03 -0.01 0.02 -0.01 0.03 -0.01 0.02 -0.01 0.03 0 0.02 -0.01 0.03 -0.01 0.03 0 0.02 -0.01 0.03 0 0.03 -0.01 0.03 0 0.03 0 0.03 0 0.03 0 0.02 0 0.03 -0.24 0 0 -0.03 0 -0.04 0 -0.03 0 -0.03 0.01 -0.04 0 -0.03 0.01 -0.04 0 -0.03 0.01 -0.03 0.01 -0.04 0 -0.03 0.01 -0.03 0.01 -0.03 0.01 -0.03 0.02 -0.03 0.01 -0.04 0.01 -0.03 0.01 -0.03 0.02 -0.03 0.01 -0.03 0.02 -0.02 0.02 -0.03 0.02 -0.03 0.01 -0.03 0.02 -0.03 0.02 -0.02 0.02 -0.03 0.03 -0.03 0.02 -0.02 0.02 -0.03 0.02 -0.02 0.03 -0.03 0 0zm0.97 -0.39l0 0.24 0 0 -0.03 0 -0.03 0 -0.03 0 -0.03 0.01 -0.02 0 -0.03 0 -0.03 0.01 -0.03 0 -0.03 0.01 -0.02 0 -0.03 0.01 -0.03 0.01 -0.02 0 -0.03 0.01 -0.02 0.01 -0.03 0.01 -0.02 0.01 -0.03 0.01 -0.02 0.01 -0.03 0.02 -0.02 0.01 -0.02 0.01 -0.03 0.02 -0.02 0.01 -0.02 0.02 -0.02 0.01 -0.03 0.02 -0.02 0.02 -0.02 0.02 -0.02 0.01 -0.02 0.02 -0.02 0.02 -0.17 -0.17 0.02 -0.02 0.03 -0.03 0.03 -0.02 0.02 -0.02 0.03 -0.02 0.02 -0.02 0.03 -0.02 0.03 -0.02 0.03 -0.02 0.03 -0.01 0.02 -0.02 0.03 -0.02 0.03 -0.01 0.03 -0.02 0.03 -0.01 0.03 -0.01 0.03 -0.01 0.04 -0.02 0.03 -0.01 0.03 -0.01 0.03 0 0.03 -0.01 0.04 -0.01 0.03 -0.01 0.03 0 0.04 -0.01 0.03 0 0.03 0 0.04 -0.01 0.03 0 0.04 0 0.03 0 0 0zm1.16 0.62l-0.2 0.13 0 0 -0.02 -0.03 -0.03 -0.03 -0.02 -0.03 -0.02 -0.03 -0.03 -0.03 -0.02 -0.02 -0.02 -0.03 -0.03 -0.02 -0.03 -0.03 -0.02 -0.02 -0.03 -0.02 -0.03 -0.02 -0.02 -0.02 -0.03 -0.02 -0.03 -0.02 -0.03 -0.01 -0.03 -0.02 -0.03 -0.01 -0.03 -0.02 -0.03 -0.01 -0.03 -0.01 -0.04 -0.01 -0.03 -0.01 -0.03 -0.01 -0.04 -0.01 -0.03 0 -0.04 -0.01 -0.03 0 -0.04 -0.01 -0.04 0 -0.04 0 -0.04 0 0 -0.24 0.05 0 0.04 0 0.05 0.01 0.04 0 0.05 0 0.04 0.01 0.04 0.01 0.04 0.01 0.04 0.01 0.04 0.01 0.04 0.01 0.04 0.02 0.04 0.01 0.04 0.02 0.04 0.02 0.03 0.02 0.04 0.02 0.04 0.02 0.03 0.02 0.03 0.02 0.04 0.03 0.03 0.02 0.03 0.03 0.03 0.03 0.03 0.03 0.03 0.03 0.03 0.03 0.03 0.04 0.03 0.03 0.03 0.04 0.02 0.03 0.03 0.04 0 0zm0.06 0.58l0 -0.24 -0.12 0.14 0 -0.01 0 -0.01 0 -0.01 -0.01 -0.01 0 -0.01 0 -0.01 0 -0.02 -0.01 -0.01 0 -0.01 0 -0.01 -0.01 -0.01 0 -0.01 -0.01 -0.01 0 -0.01 0 -0.01 -0.01 -0.01 0 -0.01 -0.01 -0.01 0 -0.01 -0.01 -0.02 0 -0.01 -0.01 -0.01 0 -0.01 -0.01 -0.01 -0.01 -0.01 0 -0.01 -0.01 -0.01 0 -0.01 -0.01 -0.01 -0.01 -0.02 -0.01 -0.01 0 -0.01 0.2 -0.13 0.01 0.01 0 0.02 0.01 0.01 0.01 0.01 0.01 0.02 0.01 0.01 0 0.01 0.01 0.02 0.01 0.01 0.01 0.01 0 0.02 0.01 0.01 0 0.01 0.01 0.02 0.01 0.01 0 0.02 0.01 0.01 0 0.01 0.01 0.02 0 0.01 0.01 0.01 0 0.02 0.01 0.01 0 0.02 0.01 0.01 0 0.01 0 0.02 0.01 0.01 0 0.02 0 0.01 0.01 0.02 0 0.01 -0.12 0.14zm0.12 -0.14l0.02 0.14 -0.14 0 0.12 -0.14zm-0.76 -0.1l0.64 0 0 0.24 -0.64 0 -0.11 -0.08 0.11 -0.16zm0 0.24l-0.08 0 -0.03 -0.08 0.11 0.08zm-0.58 -0.42l0 -0.24 0 0 0.03 0 0.03 0 0.03 0 0.03 0.01 0.02 0 0.03 0.01 0.03 0 0.03 0.01 0.02 0.01 0.03 0.01 0.02 0.01 0.03 0.01 0.02 0.01 0.03 0.02 0.02 0.01 0.02 0.02 0.03 0.01 0.02 0.02 0.02 0.02 0.02 0.02 0.02 0.02 0.01 0.02 0.02 0.02 0.02 0.03 0.02 0.02 0.01 0.02 0.02 0.03 0.01 0.03 0.01 0.02 0.02 0.03 0.01 0.03 0.01 0.03 -0.22 0.08 -0.01 -0.02 -0.01 -0.02 -0.01 -0.02 -0.01 -0.02 -0.01 -0.02 -0.01 -0.02 -0.01 -0.02 -0.02 -0.01 -0.01 -0.02 -0.01 -0.01 -0.01 -0.02 -0.01 -0.01 -0.02 -0.01 -0.01 -0.02 -0.01 -0.01 -0.02 -0.01 -0.01 -0.01 -0.01 -0.01 -0.02 -0.01 -0.01 0 -0.02 -0.01 -0.02 -0.01 -0.01 0 -0.02 -0.01 -0.02 0 -0.02 -0.01 -0.02 0 -0.02 0 -0.02 -0.01 -0.02 0 -0.02 0 -0.02 0 0 0zm-0.38 0.17l-0.18 -0.16 0 0 0.02 -0.01 0.01 -0.02 0.01 -0.01 0.02 -0.02 0.01 -0.01 0.02 -0.01 0.01 -0.02 0.02 -0.01 0.01 -0.01 0.02 -0.01 0.02 -0.01 0.01 -0.01 0.02 -0.01 0.02 -0.01 0.01 -0.01 0.02 -0.01 0.02 0 0.02 -0.01 0.02 -0.01 0.01 0 0.02 -0.01 0.02 -0.01 0.02 0 0.02 0 0.02 -0.01 0.02 0 0.02 0 0.02 -0.01 0.02 0 0.02 0 0.02 0 0.02 0 0 0.24 -0.02 0 -0.01 0 -0.01 0 -0.02 0 -0.01 0 -0.02 0.01 -0.01 0 -0.01 0 -0.01 0 -0.02 0.01 -0.01 0 -0.01 0 -0.01 0.01 -0.02 0 -0.01 0.01 -0.01 0 -0.01 0.01 -0.01 0 -0.01 0.01 -0.01 0.01 -0.01 0 -0.02 0.01 -0.01 0.01 -0.01 0 -0.01 0.01 -0.01 0.01 -0.01 0.01 -0.01 0.01 -0.01 0.01 -0.01 0.01 -0.01 0.01 -0.01 0.01 0 0zm-0.14 0.41l-0.24 0 0 0 0 -0.02 0 -0.02 0 -0.02 0 -0.02 0 -0.02 0.01 -0.02 0 -0.02 0 -0.02 0 -0.02 0.01 -0.01 0 -0.02 0.01 -0.02 0 -0.02 0.01 -0.02 0 -0.02 0.01 -0.02 0.01 -0.01 0 -0.02 0.01 -0.02 0.01 -0.02 0.01 -0.01 0.01 -0.02 0 -0.02 0.01 -0.01 0.01 -0.02 0.01 -0.02 0.01 -0.01 0.02 -0.02 0.01 -0.01 0.01 -0.02 0.01 -0.01 0.01 -0.02 0.18 0.16 -0.01 0.01 0 0.01 -0.01 0.01 -0.01 0.01 -0.01 0.01 -0.01 0.02 0 0.01 -0.01 0.01 -0.01 0.01 0 0.01 -0.01 0.01 -0.01 0.02 0 0.01 -0.01 0.01 0 0.01 -0.01 0.02 0 0.01 0 0.01 -0.01 0.01 0 0.02 0 0.01 -0.01 0.02 0 0.01 0 0.01 -0.01 0.02 0 0.01 0 0.02 0 0.01 0 0.02 0 0.01 0 0.02 0 0.01 0 0zm0.14 0.42l-0.18 0.16 0 0 -0.01 -0.02 -0.01 -0.01 -0.01 -0.02 -0.01 -0.01 -0.02 -0.02 -0.01 -0.02 -0.01 -0.01 -0.01 -0.02 -0.01 -0.02 -0.01 -0.01 0 -0.02 -0.01 -0.02 -0.01 -0.01 -0.01 -0.02 0 -0.02 -0.01 -0.02 -0.01 -0.02 0 -0.01 -0.01 -0.02 0 -0.02 -0.01 -0.02 0 -0.02 -0.01 -0.02 0 -0.02 0 -0.02 0 -0.02 -0.01 -0.02 0 -0.02 0 -0.02 0 -0.02 0 -0.02 0 -0.02 0.24 0 0 0.02 0 0.01 0 0.02 0 0.01 0 0.02 0 0.01 0.01 0.02 0 0.01 0 0.02 0 0.01 0.01 0.02 0 0.01 0 0.01 0.01 0.02 0 0.01 0 0.01 0.01 0.01 0 0.02 0.01 0.01 0.01 0.01 0 0.01 0.01 0.02 0 0.01 0.01 0.01 0.01 0.01 0 0.01 0.01 0.02 0.01 0.01 0.01 0.01 0.01 0.01 0.01 0.01 0 0.01 0 0zm0.38 0.18l0 0.24 0 0 -0.02 0 -0.02 0 -0.02 0 -0.02 -0.01 -0.02 0 -0.02 0 -0.02 0 -0.02 -0.01 -0.02 0 -0.02 -0.01 -0.02 0 -0.01 -0.01 -0.02 0 -0.02 -0.01 -0.02 -0.01 -0.02 -0.01 -0.01 -0.01 -0.02 -0.01 -0.02 0 -0.02 -0.01 -0.01 -0.02 -0.02 -0.01 -0.02 -0.01 -0.01 -0.01 -0.02 -0.01 -0.01 -0.02 -0.02 -0.01 -0.01 -0.01 -0.02 -0.02 -0.01 -0.01 -0.01 -0.02 -0.02 -0.01 0.18 -0.16 0.01 0.01 0.01 0.01 0.01 0.01 0.01 0.01 0.01 0.01 0.01 0.01 0.02 0.01 0.01 0.01 0.01 0.01 0.01 0.01 0.01 0 0.01 0.01 0.01 0.01 0.01 0 0.01 0.01 0.01 0 0.02 0.01 0.01 0 0.01 0.01 0.01 0 0.01 0.01 0.02 0 0.01 0 0.01 0.01 0.01 0 0.02 0 0.01 0 0.02 0.01 0.01 0 0.01 0 0.02 0 0.01 0 0 0zm0.58 -0.41l0 0.24 0.11 -0.07 -0.02 0.03 -0.01 0.03 -0.01 0.02 -0.02 0.03 -0.01 0.02 -0.02 0.03 -0.02 0.02 -0.01 0.02 -0.02 0.03 -0.02 0.02 -0.02 0.02 -0.02 0.02 -0.02 0.01 -0.02 0.02 -0.02 0.02 -0.02 0.02 -0.02 0.01 -0.02 0.01 -0.03 0.02 -0.02 0.01 -0.02 0.01 -0.03 0.01 -0.02 0.01 -0.03 0.01 -0.03 0.01 -0.02 0 -0.03 0.01 -0.03 0 -0.02 0 -0.03 0.01 -0.03 0 -0.03 0 0 -0.24 0.02 0 0.02 0 0.02 0 0.02 -0.01 0.02 0 0.02 0 0.01 -0.01 0.02 0 0.02 -0.01 0.01 0 0.02 -0.01 0.02 -0.01 0.01 0 0.02 -0.01 0.01 -0.01 0.01 -0.01 0.02 -0.01 0.01 -0.01 0.01 -0.01 0.02 -0.02 0.01 -0.01 0.01 -0.01 0.02 -0.02 0.01 -0.01 0.01 -0.02 0.01 -0.02 0.01 -0.02 0.02 -0.01 0.01 -0.02 0.01 -0.02 0.01 -0.03 0.01 -0.02 0.11 -0.07zm-0.11 0.07l0.03 -0.07 0.08 0 -0.11 0.07zm0.75 0.17l-0.64 0 0 -0.24 0.64 0 0.12 0.15 -0.12 0.09zm0 -0.24l0.15 0 -0.03 0.15 -0.12 -0.15z"/>
    </g>
    <path id="1" class="fil2" d="M6.12 4.31c-0.07,0.28 -0.22,0.51 -0.44,0.69 -0.22,0.17 -0.48,0.26 -0.77,0.26 -0.35,0 -0.65,-0.12 -0.89,-0.36 -0.25,-0.25 -0.37,-0.54 -0.37,-0.9 0,-0.35 0.12,-0.64 0.36,-0.88 0.25,-0.24 0.54,-0.36 0.89,-0.36 0.46,0 0.81,0.19 1.06,0.57 0.08,0.13 0.14,0.26 0.16,0.39l-0.64 0c-0.11,-0.28 -0.3,-0.42 -0.58,-0.42 -0.19,0 -0.34,0.07 -0.47,0.21 -0.11,0.14 -0.17,0.3 -0.17,0.49 0,0.2 0.06,0.36 0.17,0.5 0.13,0.15 0.28,0.22 0.47,0.22 0.26,0 0.46,-0.14 0.58,-0.41l0.64 0z"/>
    <g>
     <path class="fil0" d="M8.7 4.99l-0.16 -0.18 0 0.01 0.02 -0.03 0.02 -0.02 0.02 -0.02 0.02 -0.02 0.01 -0.02 0.02 -0.02 0.02 -0.03 0.01 -0.02 0.02 -0.02 0.01 -0.02 0.02 -0.03 0.01 -0.02 0.01 -0.03 0.02 -0.02 0.01 -0.02 0.01 -0.03 0.01 -0.02 0.01 -0.03 0.01 -0.03 0 -0.02 0.01 -0.03 0.01 -0.02 0 -0.03 0.01 -0.03 0 -0.03 0.01 -0.03 0 -0.02 0.01 -0.03 0 -0.03 0 -0.03 0 -0.03 0 -0.03 0.24 0 0 0.03 0 0.04 0 0.03 -0.01 0.04 0 0.03 0 0.04 -0.01 0.03 -0.01 0.04 0 0.03 -0.01 0.03 -0.01 0.03 -0.01 0.04 -0.01 0.03 -0.01 0.03 -0.01 0.03 -0.01 0.03 -0.02 0.03 -0.01 0.03 -0.01 0.03 -0.02 0.03 -0.02 0.03 -0.01 0.03 -0.02 0.03 -0.02 0.03 -0.02 0.03 -0.02 0.02 -0.02 0.03 -0.02 0.03 -0.02 0.02 -0.03 0.03 -0.02 0.02 -0.03 0.03 0 0zm-0.98 0.39l0 -0.24 0 0 0.03 0 0.03 0 0.03 0 0.03 -0.01 0.03 0 0.03 0 0.03 -0.01 0.03 0 0.02 -0.01 0.03 0 0.03 -0.01 0.02 -0.01 0.03 -0.01 0.03 0 0.02 -0.01 0.03 -0.01 0.02 -0.01 0.03 -0.01 0.02 -0.02 0.03 -0.01 0.02 -0.01 0.02 -0.01 0.03 -0.02 0.02 -0.01 0.02 -0.02 0.03 -0.01 0.02 -0.02 0.02 -0.02 0.02 -0.02 0.02 -0.02 0.03 -0.02 0.02 -0.02 0.16 0.18 -0.02 0.02 -0.03 0.02 -0.02 0.03 -0.03 0.02 -0.03 0.02 -0.02 0.02 -0.03 0.02 -0.03 0.02 -0.03 0.02 -0.03 0.01 -0.02 0.02 -0.03 0.02 -0.03 0.01 -0.03 0.01 -0.03 0.02 -0.03 0.01 -0.04 0.01 -0.03 0.01 -0.03 0.01 -0.03 0.01 -0.03 0.01 -0.04 0.01 -0.03 0.01 -0.03 0 -0.04 0.01 -0.03 0 -0.03 0.01 -0.04 0 -0.03 0.01 -0.04 0 -0.03 0 -0.04 0 0 0zm-0.96 -0.39l0.16 -0.17 0 0 0.02 0.02 0.02 0.02 0.03 0.02 0.02 0.02 0.02 0.01 0.02 0.02 0.02 0.01 0.03 0.02 0.02 0.01 0.02 0.02 0.03 0.01 0.02 0.01 0.02 0.02 0.03 0.01 0.02 0.01 0.03 0.01 0.02 0.01 0.03 0.01 0.02 0.01 0.03 0 0.03 0.01 0.02 0.01 0.03 0 0.03 0.01 0.02 0 0.03 0.01 0.03 0 0.03 0 0.02 0.01 0.03 0 0.03 0 0.03 0 0 0.24 -0.03 0 -0.04 0 -0.03 0 -0.03 -0.01 -0.04 0 -0.03 0 -0.03 -0.01 -0.04 -0.01 -0.03 0 -0.03 -0.01 -0.03 -0.01 -0.04 -0.01 -0.03 0 -0.03 -0.02 -0.03 -0.01 -0.03 -0.01 -0.03 -0.01 -0.03 -0.01 -0.03 -0.02 -0.03 -0.01 -0.03 -0.02 -0.03 -0.01 -0.03 -0.02 -0.02 -0.02 -0.03 -0.02 -0.03 -0.02 -0.02 -0.02 -0.03 -0.02 -0.03 -0.02 -0.02 -0.02 -0.03 -0.02 -0.02 -0.03 0 0zm-0.42 -0.95l0.24 0 0 0 0 0.03 0 0.03 0.01 0.02 0 0.03 0 0.03 0 0.03 0.01 0.03 0 0.02 0.01 0.03 0.01 0.02 0 0.03 0.01 0.03 0.01 0.02 0.01 0.03 0.01 0.02 0.01 0.02 0.01 0.03 0.01 0.02 0.01 0.03 0.01 0.02 0.02 0.02 0.01 0.02 0.02 0.03 0.01 0.02 0.02 0.02 0.01 0.02 0.02 0.02 0.02 0.03 0.02 0.02 0.02 0.02 0.02 0.02 0.02 0.02 -0.16 0.17 -0.03 -0.02 -0.02 -0.02 -0.03 -0.03 -0.02 -0.02 -0.02 -0.03 -0.02 -0.03 -0.02 -0.02 -0.02 -0.03 -0.02 -0.03 -0.02 -0.03 -0.02 -0.02 -0.01 -0.03 -0.02 -0.03 -0.02 -0.03 -0.01 -0.03 -0.01 -0.03 -0.02 -0.03 -0.01 -0.03 -0.01 -0.03 -0.01 -0.03 -0.01 -0.03 -0.01 -0.04 0 -0.03 -0.01 -0.03 -0.01 -0.03 0 -0.04 -0.01 -0.03 0 -0.03 0 -0.04 -0.01 -0.03 0 -0.04 0 -0.03 0 0zm0.1 -0.56l0.23 0.09 0 0 -0.01 0.01 0 0.02 -0.01 0.01 0 0.01 -0.01 0.02 0 0.01 -0.01 0.02 0 0.01 0 0.01 -0.01 0.02 0 0.01 0 0.02 -0.01 0.01 0 0.02 0 0.01 -0.01 0.01 0 0.02 0 0.01 0 0.02 -0.01 0.01 0 0.02 0 0.01 0 0.02 0 0.01 0 0.02 0 0.02 -0.01 0.01 0 0.02 0 0.01 0 0.02 0 0.01 0 0.02 -0.24 0 0 -0.02 0 -0.02 0 -0.02 0 -0.01 0.01 -0.02 0 -0.02 0 -0.02 0 -0.02 0 -0.01 0 -0.02 0.01 -0.02 0 -0.02 0 -0.02 0 -0.01 0.01 -0.02 0 -0.02 0 -0.02 0.01 -0.01 0 -0.02 0 -0.02 0.01 -0.01 0 -0.02 0.01 -0.02 0 -0.02 0.01 -0.01 0 -0.02 0.01 -0.02 0 -0.01 0.01 -0.02 0 -0.02 0.01 -0.01 0 -0.02 0 0zm0.18 -0.3l0.19 0.15 0 0 -0.01 0.01 0 0 -0.01 0.01 -0.01 0.01 0 0.01 -0.01 0.01 0 0 -0.01 0.01 0 0.01 -0.01 0.01 0 0 -0.01 0.01 0 0.01 -0.01 0.01 0 0.01 -0.01 0 0 0.01 -0.01 0.01 0 0.01 0 0 -0.01 0.01 0 0.01 0 0 -0.01 0.01 0 0.01 0 0.01 -0.01 0 0 0.01 0 0.01 -0.01 0 0 0.01 0 0.01 -0.23 -0.09 0.01 -0.01 0 -0.01 0.01 -0.01 0 -0.01 0 -0.01 0.01 0 0 -0.01 0.01 -0.01 0 -0.01 0.01 -0.01 0 -0.01 0.01 -0.01 0 -0.01 0.01 -0.01 0 -0.01 0.01 -0.01 0 -0.01 0.01 -0.01 0 -0.01 0.01 -0.01 0 -0.01 0.01 0 0.01 -0.01 0 -0.01 0.01 -0.01 0.01 -0.01 0 -0.01 0.01 -0.01 0.01 -0.01 0 -0.01 0.01 -0.01 0.01 -0.01 0 0zm1.11 -0.54l0 0.24 0 0 -0.04 0 -0.04 0 -0.03 0 -0.04 0.01 -0.03 0 -0.04 0.01 -0.03 0 -0.03 0.01 -0.04 0.01 -0.03 0 -0.03 0.01 -0.03 0.01 -0.03 0.01 -0.03 0.02 -0.03 0.01 -0.03 0.01 -0.02 0.02 -0.03 0.01 -0.03 0.02 -0.03 0.01 -0.02 0.02 -0.03 0.02 -0.02 0.02 -0.03 0.02 -0.02 0.02 -0.03 0.02 -0.02 0.03 -0.02 0.02 -0.03 0.03 -0.02 0.02 -0.02 0.03 -0.02 0.03 -0.19 -0.15 0.02 -0.03 0.03 -0.03 0.03 -0.03 0.02 -0.03 0.03 -0.03 0.03 -0.03 0.03 -0.03 0.03 -0.02 0.03 -0.03 0.03 -0.02 0.03 -0.03 0.03 -0.02 0.04 -0.02 0.03 -0.02 0.04 -0.02 0.03 -0.01 0.04 -0.02 0.03 -0.02 0.04 -0.01 0.03 -0.01 0.04 -0.02 0.04 -0.01 0.04 -0.01 0.04 -0.01 0.04 0 0.04 -0.01 0.04 -0.01 0.04 0 0.04 -0.01 0.04 0 0.04 0 0.05 0 0 0zm0.97 0.39l-0.16 0.18 0 0 -0.02 -0.03 -0.03 -0.01 -0.02 -0.02 -0.02 -0.02 -0.02 -0.02 -0.02 -0.02 -0.03 -0.01 -0.02 -0.02 -0.02 -0.01 -0.03 -0.02 -0.02 -0.01 -0.02 -0.01 -0.03 -0.02 -0.02 -0.01 -0.03 -0.01 -0.02 -0.01 -0.03 -0.01 -0.02 -0.01 -0.03 -0.01 -0.02 0 -0.03 -0.01 -0.03 -0.01 -0.02 0 -0.03 -0.01 -0.03 0 -0.03 -0.01 -0.03 0 -0.03 0 -0.02 -0.01 -0.03 0 -0.03 0 -0.03 0 0 -0.24 0.03 0 0.04 0 0.03 0 0.04 0.01 0.03 0 0.03 0 0.04 0.01 0.03 0 0.03 0.01 0.04 0.01 0.03 0.01 0.03 0 0.03 0.01 0.04 0.01 0.03 0.02 0.03 0.01 0.03 0.01 0.03 0.01 0.03 0.02 0.03 0.01 0.03 0.02 0.03 0.02 0.02 0.01 0.03 0.02 0.03 0.02 0.03 0.02 0.02 0.02 0.03 0.02 0.03 0.02 0.02 0.03 0.03 0.02 0.02 0.02 0 0zm0.41 0.98l-0.24 0 0 0 0 -0.03 0 -0.03 0 -0.03 0 -0.03 -0.01 -0.03 0 -0.03 -0.01 -0.03 0 -0.02 -0.01 -0.03 0 -0.03 -0.01 -0.02 -0.01 -0.03 0 -0.03 -0.01 -0.02 -0.01 -0.03 -0.01 -0.02 -0.01 -0.03 -0.01 -0.02 -0.02 -0.03 -0.01 -0.02 -0.01 -0.02 -0.02 -0.03 -0.01 -0.02 -0.02 -0.02 -0.01 -0.02 -0.02 -0.03 -0.02 -0.02 -0.01 -0.02 -0.02 -0.02 -0.02 -0.02 -0.02 -0.02 -0.02 -0.02 0.16 -0.18 0.03 0.03 0.02 0.02 0.03 0.03 0.02 0.02 0.02 0.03 0.02 0.03 0.02 0.02 0.02 0.03 0.02 0.03 0.02 0.03 0.01 0.03 0.02 0.03 0.02 0.02 0.01 0.03 0.01 0.03 0.02 0.04 0.01 0.03 0.01 0.03 0.01 0.03 0.01 0.03 0.01 0.03 0.01 0.04 0.01 0.03 0 0.03 0.01 0.04 0.01 0.03 0 0.03 0 0.04 0.01 0.03 0 0.04 0 0.03 0 0.04 0 0zm-1 -0.41l0.18 -0.16 0 0 0.01 0.01 0.02 0.02 0.01 0.01 0.01 0.02 0.01 0.01 0.01 0.02 0.01 0.02 0.01 0.01 0.01 0.02 0.01 0.02 0.01 0.01 0.01 0.02 0.01 0.02 0 0.02 0.01 0.01 0.01 0.02 0 0.02 0.01 0.02 0 0.02 0.01 0.02 0 0.01 0.01 0.02 0 0.02 0.01 0.02 0 0.02 0 0.02 0 0.02 0 0.02 0.01 0.02 0 0.02 0 0.02 0 0.02 -0.24 0 0 -0.01 0 -0.02 0 -0.02 0 -0.01 -0.01 -0.02 0 -0.01 0 -0.01 0 -0.02 0 -0.01 -0.01 -0.02 0 -0.01 0 -0.01 -0.01 -0.02 0 -0.01 0 -0.01 -0.01 -0.02 0 -0.01 -0.01 -0.01 0 -0.01 -0.01 -0.02 -0.01 -0.01 0 -0.01 -0.01 -0.01 0 -0.02 -0.01 -0.01 -0.01 -0.01 -0.01 -0.01 0 -0.01 -0.01 -0.01 -0.01 -0.01 -0.01 -0.01 -0.01 -0.02 0 0.01zm-0.38 -0.18l0 -0.24 0 0 0.02 0 0.02 0 0.02 0 0.02 0 0.02 0.01 0.02 0 0.02 0 0.02 0.01 0.02 0 0.02 0 0.02 0.01 0.02 0.01 0.01 0 0.02 0.01 0.02 0.01 0.02 0 0.02 0.01 0.01 0.01 0.02 0.01 0.02 0.01 0.01 0.01 0.02 0.01 0.02 0.01 0.01 0.02 0.02 0.01 0.01 0.01 0.02 0.01 0.01 0.02 0.02 0.01 0.01 0.02 0.02 0.01 0.01 0.02 -0.18 0.16 -0.01 -0.02 -0.01 -0.01 -0.01 -0.01 -0.01 -0.01 -0.01 -0.01 -0.01 -0.01 -0.01 0 -0.01 -0.01 -0.01 -0.01 -0.01 -0.01 -0.01 -0.01 -0.01 0 -0.02 -0.01 -0.01 -0.01 -0.01 0 -0.01 -0.01 -0.01 0 -0.01 -0.01 -0.02 0 -0.01 -0.01 -0.01 0 -0.01 0 -0.02 -0.01 -0.01 0 -0.01 0 -0.02 0 -0.01 -0.01 -0.01 0 -0.02 0 -0.01 0 -0.02 0 -0.01 0 0 0zm-0.39 0.17l-0.17 -0.16 0 0 0.01 -0.02 0.01 -0.01 0.02 -0.01 0.01 -0.02 0.02 -0.01 0.01 -0.01 0.02 -0.02 0.01 -0.01 0.02 -0.01 0.02 -0.01 0.01 -0.01 0.02 -0.01 0.02 -0.01 0.01 -0.01 0.02 -0.01 0.02 -0.01 0.02 -0.01 0.01 0 0.02 -0.01 0.02 -0.01 0.02 0 0.02 -0.01 0.02 0 0.02 0 0.02 -0.01 0.02 0 0.02 0 0.02 -0.01 0.02 0 0.02 0 0.02 0 0.02 0 0 0.24 -0.02 0 -0.01 0 -0.02 0 -0.01 0 -0.01 0 -0.02 0.01 -0.01 0 -0.02 0 -0.01 0 -0.01 0.01 -0.01 0 -0.02 0 -0.01 0.01 -0.01 0 -0.01 0.01 -0.02 0 -0.01 0.01 -0.01 0 -0.01 0.01 -0.01 0.01 -0.01 0 -0.01 0.01 -0.01 0.01 -0.02 0 -0.01 0.01 -0.01 0.01 -0.01 0.01 -0.01 0.01 -0.01 0.01 -0.01 0.01 -0.01 0.01 -0.01 0.01 0 0zm-0.15 0.41l-0.24 0 0 0 0.01 -0.02 0 -0.02 0 -0.02 0 -0.02 0 -0.02 0 -0.02 0 -0.02 0.01 -0.02 0 -0.02 0 -0.02 0.01 -0.02 0 -0.01 0.01 -0.02 0 -0.02 0.01 -0.02 0.01 -0.02 0 -0.02 0.01 -0.01 0.01 -0.02 0.01 -0.02 0.01 -0.02 0 -0.01 0.01 -0.02 0.01 -0.02 0.01 -0.01 0.01 -0.02 0.02 -0.01 0.01 -0.02 0.01 -0.02 0.01 -0.01 0.01 -0.02 0.02 -0.01 0.17 0.16 -0.01 0.01 0 0.01 -0.01 0.01 -0.01 0.01 -0.01 0.01 -0.01 0.02 0 0.01 -0.01 0.01 -0.01 0.01 -0.01 0.01 0 0.01 -0.01 0.02 0 0.01 -0.01 0.01 0 0.01 -0.01 0.01 0 0.02 -0.01 0.01 0 0.01 0 0.02 -0.01 0.01 0 0.01 0 0.02 -0.01 0.01 0 0.02 0 0.01 0 0.02 0 0.01 0 0.02 -0.01 0.01 0 0.02 0 0.01 0 0zm0.16 0.42l-0.18 0.16 0 0 -0.02 -0.01 -0.01 -0.02 -0.01 -0.01 -0.01 -0.02 -0.01 -0.01 -0.02 -0.02 -0.01 -0.02 -0.01 -0.01 -0.01 -0.02 -0.01 -0.02 0 -0.01 -0.01 -0.02 -0.01 -0.02 -0.01 -0.02 -0.01 -0.01 0 -0.02 -0.01 -0.02 -0.01 -0.02 0 -0.02 -0.01 -0.02 0 -0.02 0 -0.02 -0.01 -0.02 0 -0.02 -0.01 -0.02 0 -0.02 0 -0.02 0 -0.02 0 -0.02 0 -0.02 0 -0.02 -0.01 -0.02 0.24 0 0 0.02 0 0.01 0.01 0.02 0 0.02 0 0.01 0 0.02 0 0.01 0 0.02 0.01 0.01 0 0.01 0 0.02 0.01 0.01 0 0.02 0 0.01 0.01 0.01 0 0.01 0.01 0.02 0 0.01 0.01 0.01 0 0.02 0.01 0.01 0.01 0.01 0 0.01 0.01 0.01 0.01 0.02 0 0.01 0.01 0.01 0.01 0.01 0.01 0.01 0.01 0.01 0.01 0.01 0.01 0.01 0 0zm0.38 0.18l0 0.24 0 0 -0.02 0 -0.02 0 -0.02 0 -0.02 -0.01 -0.02 0 -0.02 0 -0.02 0 -0.02 -0.01 -0.02 0 -0.02 -0.01 -0.02 0 -0.02 -0.01 -0.01 0 -0.02 -0.01 -0.02 -0.01 -0.02 -0.01 -0.02 0 -0.01 -0.01 -0.02 -0.01 -0.02 -0.01 -0.02 -0.01 -0.01 -0.01 -0.02 -0.01 -0.02 -0.02 -0.01 -0.01 -0.02 -0.01 -0.01 -0.01 -0.02 -0.02 -0.01 -0.01 -0.02 -0.02 -0.01 -0.01 -0.01 -0.02 0.18 -0.16 0.01 0.02 0.01 0.01 0.01 0.01 0.01 0.01 0.01 0.01 0.01 0 0.01 0.01 0.01 0.01 0.01 0.01 0.01 0.01 0.01 0 0.01 0.01 0.01 0.01 0.02 0 0.01 0.01 0.01 0 0.01 0.01 0.01 0 0.01 0.01 0.02 0 0.01 0.01 0.01 0 0.02 0 0.01 0.01 0.01 0 0.02 0 0.01 0 0.02 0.01 0.01 0 0.01 0 0.02 0 0.01 0 0 0zm0.38 -0.18l0.18 0.16 0 0 -0.01 0.02 -0.02 0.01 -0.01 0.02 -0.01 0.01 -0.02 0.01 -0.01 0.02 -0.02 0.01 -0.02 0.01 -0.01 0.01 -0.02 0.02 -0.01 0.01 -0.02 0.01 -0.02 0.01 -0.01 0.01 -0.02 0 -0.02 0.01 -0.02 0.01 -0.01 0.01 -0.02 0.01 -0.02 0 -0.02 0.01 -0.02 0 -0.02 0.01 -0.02 0 -0.02 0.01 -0.02 0 -0.01 0 -0.02 0 -0.02 0.01 -0.02 0 -0.02 0 -0.03 0 0 -0.24 0.02 0 0.01 0 0.02 0 0.01 0 0.01 -0.01 0.02 0 0.01 0 0.01 0 0.02 -0.01 0.01 0 0.01 0 0.01 -0.01 0.02 0 0.01 0 0.01 -0.01 0.01 0 0.01 -0.01 0.01 -0.01 0.02 0 0.01 -0.01 0.01 -0.01 0.01 0 0.01 -0.01 0.01 -0.01 0.01 -0.01 0.01 -0.01 0.01 0 0.01 -0.01 0.01 -0.01 0.01 -0.01 0.01 -0.02 0.01 -0.01 0 0zm0.15 -0.41l0.24 0 0 0 0 0.02 0 0.02 0 0.02 -0.01 0.02 0 0.02 0 0.02 0 0.02 0 0.02 -0.01 0.02 0 0.02 -0.01 0.02 0 0.01 -0.01 0.02 0 0.02 -0.01 0.02 0 0.02 -0.01 0.02 -0.01 0.01 -0.01 0.02 0 0.02 -0.01 0.02 -0.01 0.01 -0.01 0.02 -0.01 0.02 -0.01 0.01 -0.01 0.02 -0.01 0.01 -0.01 0.02 -0.01 0.02 -0.01 0.01 -0.02 0.02 -0.01 0.01 -0.18 -0.16 0.01 -0.01 0.01 -0.01 0.01 -0.01 0.01 -0.01 0 -0.01 0.01 -0.01 0.01 -0.01 0.01 -0.02 0 -0.01 0.01 -0.01 0 -0.01 0.01 -0.01 0.01 -0.02 0 -0.01 0.01 -0.01 0 -0.01 0.01 -0.02 0 -0.01 0 -0.01 0.01 -0.02 0 -0.01 0 -0.01 0.01 -0.02 0 -0.01 0 -0.01 0 -0.02 0 -0.01 0.01 -0.02 0 -0.01 0 -0.02 0 -0.01 0 -0.02 0 0z"/>
    </g>
    <g>
     <path id="1" class="fil0" d="M11.37 4l-0.22 -0.08 0 0 0 -0.01 0.01 -0.01 0 -0.01 0 -0.01 0 -0.01 0.01 -0.01 0 -0.01 0 -0.01 0.01 -0.01 0 0 0 -0.01 0 -0.01 0 -0.01 0.01 -0.01 0 -0.01 0 -0.01 0 -0.01 0 -0.01 0 -0.01 0.01 -0.01 0 -0.01 0 -0.01 0 -0.01 0 -0.01 0 -0.01 0 0 0 -0.01 0 -0.01 0 -0.01 0 -0.01 0 -0.01 0 -0.01 0.24 0 0 0.01 0 0.01 0 0.01 0 0.02 0 0.01 0 0.01 0 0.01 0 0.02 0 0.01 0 0.01 -0.01 0.01 0 0.01 0 0.02 0 0.01 0 0.01 0 0.01 -0.01 0.02 0 0.01 0 0.01 0 0.01 -0.01 0.01 0 0.02 0 0.01 -0.01 0.01 0 0.01 0 0.01 -0.01 0.01 0 0.02 -0.01 0.01 0 0.01 0 0.01 -0.01 0.01 0 0zm-0.22 0.34l-0.16 -0.18 0 0 0.01 -0.01 0 0 0.01 -0.01 0 0 0.01 -0.01 0.01 0 0 -0.01 0.01 -0.01 0 0 0.01 -0.01 0 -0.01 0.01 0 0 -0.01 0.01 -0.01 0 -0.01 0.01 0 0 -0.01 0.01 -0.01 0 -0.01 0.01 0 0 -0.01 0.01 -0.01 0 -0.01 0.01 -0.01 0 -0.01 0 -0.01 0.01 0 0 -0.01 0.01 -0.01 0 -0.01 0 -0.01 0.01 -0.01 0.22 0.08 0 0.02 -0.01 0.01 0 0.01 -0.01 0.01 0 0.02 -0.01 0.01 -0.01 0.01 0 0.01 -0.01 0.01 0 0.01 -0.01 0.02 -0.01 0.01 0 0.01 -0.01 0.01 -0.01 0.01 0 0.01 -0.01 0.01 -0.01 0.01 0 0.01 -0.01 0.01 -0.01 0.01 -0.01 0.01 0 0.01 -0.01 0.01 -0.01 0.01 -0.01 0.01 -0.01 0.01 0 0.01 -0.01 0 -0.01 0.01 -0.01 0.01 -0.01 0.01 0 0zm-0.38 0.2l-0.06 -0.24 0 0 0.01 0 0.01 0 0.01 0 0.01 -0.01 0.01 0 0.01 0 0.01 -0.01 0.01 0 0.01 0 0.01 -0.01 0.01 0 0.01 0 0.01 -0.01 0 0 0.01 -0.01 0.01 0 0.01 -0.01 0.01 0 0.01 -0.01 0.01 0 0 -0.01 0.01 0 0.01 -0.01 0.01 0 0.01 -0.01 0 0 0.01 -0.01 0.01 -0.01 0.01 0 0.01 -0.01 0 0 0.01 -0.01 0.16 0.18 -0.01 0.01 -0.01 0.01 -0.01 0.01 -0.01 0.01 -0.01 0 -0.01 0.01 -0.02 0.01 -0.01 0.01 -0.01 0 -0.01 0.01 -0.01 0.01 -0.01 0.01 -0.01 0 -0.01 0.01 -0.02 0.01 -0.01 0 -0.01 0.01 -0.01 0 -0.01 0.01 -0.02 0.01 -0.01 0 -0.01 0.01 -0.01 0 -0.02 0.01 -0.01 0 -0.01 0 -0.01 0.01 -0.02 0 -0.01 0.01 -0.01 0 -0.01 0 -0.02 0.01 0 0zm-0.4 0.04l0 -0.24 0 0 0.02 0 0.01 0 0.01 0 0.02 0 0.01 0 0.01 0 0.01 0 0.02 0 0.01 -0.01 0.01 0 0.01 0 0.01 0 0.02 0 0.01 0 0.01 0 0.01 0 0.01 0 0.01 0 0.01 0 0.01 -0.01 0.01 0 0.01 0 0.01 0 0.01 0 0.01 0 0.01 0 0 -0.01 0.01 0 0.01 0 0.01 0 0.01 0 0 -0.01 0.06 0.24 -0.01 0 -0.01 0 -0.01 0.01 -0.01 0 -0.01 0 -0.01 0 -0.01 0 -0.01 0.01 -0.01 0 -0.02 0 -0.01 0 -0.01 0 -0.01 0 -0.01 0.01 -0.02 0 -0.01 0 -0.01 0 -0.01 0 -0.02 0 -0.01 0 -0.01 0 -0.02 0 -0.01 0 -0.01 0.01 -0.02 0 -0.01 0 -0.02 0 -0.01 0 -0.01 0 -0.02 0 -0.01 0 -0.02 0 0 0zm-0.26 -0.24l0.26 0 0 0.24 -0.26 0 -0.12 -0.12 0.12 -0.12zm-0.12 0.12l0 -0.12 0.12 0 -0.12 0.12zm0 0.75l0 -0.75 0.24 0 0 0.75 -0.12 0.12 -0.12 -0.12zm0.24 0l0 0.12 -0.12 0 0.12 -0.12zm-0.71 -0.12l0.59 0 0 0.24 -0.59 0 -0.12 -0.12 0.12 -0.12zm0 0.24l-0.12 0 0 -0.12 0.12 0.12zm0.12 -2.53l0 2.41 -0.24 0 0 -2.41 0.12 -0.12 0.12 0.12zm-0.24 0l0 -0.12 0.12 0 -0.12 0.12zm0.9 0.12l-0.78 0 0 -0.24 0.78 0 0 0 0 0.24zm0.2 -0.23l-0.01 0.24 0 0 -0.01 0 0 0 -0.01 0 0 0 -0.01 0 0 0 -0.01 0 0 0 -0.01 0 0 0 -0.01 0 0 0 -0.01 0 0 0 -0.01 0 0 0 -0.01 0 -0.01 0 0 0 -0.01 0 0 0 -0.01 0 -0.01 0 0 0 -0.01 -0.01 -0.01 0 0 0 -0.01 0 -0.01 0 0 0 -0.01 0 -0.01 0 0 -0.24 0.01 0 0.01 0 0.01 0 0 0 0.01 0 0.01 0 0 0 0.01 0 0.01 0 0 0 0.01 0 0.01 0 0 0.01 0.01 0 0.01 0 0 0 0.01 0 0 0 0.01 0 0.01 0 0 0 0.01 0 0 0 0.01 0 0 0 0.01 0 0.01 0 0 0 0.01 0 0 0 0.01 0 0 0 0 0zm0.21 0.02l-0.04 0.24 0 0 0 0 -0.01 0 0 0 -0.01 0 -0.01 0 0 -0.01 -0.01 0 0 0 -0.01 0 0 0 -0.01 0 0 0 -0.01 0 0 0 -0.01 0 -0.01 0 0 0 -0.01 0 0 0 -0.01 -0.01 0 0 -0.01 0 -0.01 0 0 0 -0.01 0 0 0 -0.01 0 -0.01 0 0 0 -0.01 0 -0.01 0 0 0 0.01 -0.24 0.01 0 0.01 0 0 0 0.01 0 0.01 0 0 0 0.01 0 0.01 0 0 0 0.01 0 0.01 0 0.01 0.01 0 0 0.01 0 0.01 0 0 0 0.01 0 0 0 0.01 0 0.01 0 0 0 0.01 0 0.01 0 0 0 0.01 0.01 0.01 0 0 0 0.01 0 0 0 0.01 0 0.01 0 0 0 0 0zm0.41 0.18l-0.16 0.18 0.01 0 -0.01 0 -0.01 -0.01 0 0 -0.01 -0.01 -0.01 0 -0.01 -0.01 0 0 -0.01 -0.01 -0.01 0 -0.01 -0.01 -0.01 0 0 -0.01 -0.01 0 -0.01 0 -0.01 -0.01 -0.01 0 -0.01 -0.01 -0.01 0 -0.01 0 -0.01 -0.01 -0.01 0 -0.01 0 -0.01 -0.01 -0.01 0 -0.01 0 -0.01 -0.01 -0.01 0 -0.01 0 -0.01 0 -0.02 -0.01 -0.01 0 -0.01 0 0.04 -0.24 0.02 0.01 0.01 0 0.02 0 0.01 0 0.02 0.01 0.01 0 0.01 0.01 0.02 0 0.01 0 0.02 0.01 0.01 0 0.01 0.01 0.02 0 0.01 0.01 0.01 0 0.01 0.01 0.02 0 0.01 0.01 0.01 0 0.01 0.01 0.02 0.01 0.01 0 0.01 0.01 0.01 0.01 0.01 0 0.01 0.01 0.02 0.01 0.01 0.01 0.01 0 0.01 0.01 0.01 0.01 0.01 0.01 0 0zm0.32 0.73l-0.24 0 0 0 0 -0.02 0 -0.03 0 -0.02 0 -0.02 0 -0.02 0 -0.02 -0.01 -0.02 0 -0.02 -0.01 -0.02 0 -0.02 0 -0.01 -0.01 -0.02 -0.01 -0.02 0 -0.02 -0.01 -0.01 -0.01 -0.02 0 -0.02 -0.01 -0.01 -0.01 -0.02 -0.01 -0.02 -0.01 -0.01 -0.01 -0.02 -0.01 -0.01 -0.01 -0.02 -0.01 -0.01 -0.01 -0.02 -0.02 -0.01 -0.01 -0.01 -0.01 -0.02 -0.02 -0.01 -0.01 -0.01 -0.02 -0.02 0.16 -0.18 0.02 0.02 0.02 0.01 0.02 0.02 0.01 0.02 0.02 0.02 0.02 0.02 0.01 0.02 0.02 0.02 0.02 0.02 0.01 0.02 0.01 0.02 0.02 0.02 0.01 0.02 0.01 0.03 0.01 0.02 0.01 0.02 0.01 0.02 0.01 0.03 0.01 0.02 0.01 0.03 0.01 0.02 0 0.03 0.01 0.02 0 0.03 0.01 0.02 0 0.03 0.01 0.02 0 0.03 0 0.03 0 0.02 0 0.03 0 0.03 0 0zm-0.88 -0.12l0.11 -0.21 0 0 0.01 0 0.01 0.01 0.01 0.01 0.01 0 0.01 0.01 0.01 0.01 0.01 0.01 0.01 0.01 0.01 0 0.01 0.01 0.01 0.01 0 0.01 0.01 0.01 0.01 0.02 0 0.01 0.01 0.01 0.01 0.01 0 0.01 0.01 0.01 0 0.01 0.01 0.02 0 0.01 0 0.01 0.01 0.01 0 0.02 0 0.01 0 0.01 0 0.02 0.01 0.01 0 0.01 0 0.02 0 0.01 -0.24 0 0 -0.01 0 -0.01 0 0 0 -0.01 0 -0.01 -0.01 0 0 -0.01 0 0 0 -0.01 0 0 0 -0.01 0 0 0 -0.01 -0.01 0 0 0 0 -0.01 0 0 0 -0.01 -0.01 0 0 0 0 0 0 -0.01 0 0 -0.01 0 0 0 0 -0.01 -0.01 0 0 0 0 0 -0.01 -0.01 0 0 0 0 0 0zm-0.23 -0.04l0 -0.24 0 0 0.01 0 0.02 0 0.01 0 0.01 0.01 0.01 0 0.02 0 0.01 0 0.01 0 0.01 0 0.01 0 0.01 0 0.01 0 0.01 0 0.01 0 0.02 0.01 0.01 0 0.01 0 0.01 0 0.01 0 0.01 0.01 0.01 0 0.01 0 0 0 0.01 0.01 0.01 0 0.01 0 0.01 0.01 0.01 0 0.01 0 0.01 0.01 0.01 0 0.01 0.01 -0.11 0.21 -0.01 0 0 0 0 -0.01 -0.01 0 0 0 -0.01 0 0 0 -0.01 0 0 -0.01 -0.01 0 0 0 -0.01 0 0 0 -0.01 0 -0.01 0 0 -0.01 -0.01 0 -0.01 0 -0.01 0 0 0 -0.01 0 -0.01 0 -0.01 0 -0.01 0 -0.01 0 -0.01 0 -0.01 0 -0.01 0 -0.01 0 -0.01 -0.01 -0.01 0 -0.01 0 0 0zm-0.22 -0.24l0.22 0 0 0.24 -0.22 0 -0.12 -0.12 0.12 -0.12zm-0.12 0.12l0 -0.12 0.12 0 -0.12 0.12zm0 0.58l0 -0.58 0.24 0 0 0.58 -0.12 0.12 -0.12 -0.12zm0.12 0.12l-0.12 0 0 -0.12 0.12 0.12zm0.24 0l-0.24 0 0 -0.24 0.24 0 0 0 0 0.24zm0.21 -0.28l0.12 0.21 0 0 -0.01 0 0 0.01 -0.01 0 -0.01 0.01 -0.01 0 -0.01 0 -0.01 0.01 -0.01 0 -0.01 0 -0.01 0.01 -0.01 0 -0.01 0 -0.01 0.01 -0.01 0 -0.01 0 -0.01 0 -0.01 0 -0.01 0.01 -0.01 0 -0.01 0 -0.01 0 -0.01 0 -0.01 0 -0.01 0 -0.01 0 -0.01 0.01 -0.02 0 -0.01 0 -0.01 0 -0.01 0 -0.01 0 -0.02 0 0 -0.24 0.01 0 0.01 0 0.01 0 0.01 0 0.01 0 0.01 0 0.01 0 0.01 -0.01 0.01 0 0 0 0.01 0 0.01 0 0.01 0 0 0 0.01 0 0.01 0 0 0 0.01 -0.01 0 0 0.01 0 0.01 0 0 0 0.01 0 0 -0.01 0.01 0 0 0 0 0 0.01 0 0 0 0 -0.01 0.01 0 0 0 0 0zm0.06 -0.13l0.24 0 0 0 0 0.01 0 0.01 0 0.02 -0.01 0.01 0 0.01 0 0.02 0 0.01 0 0.01 -0.01 0.01 0 0.01 0 0.02 -0.01 0.01 0 0.01 0 0.01 -0.01 0.01 0 0.01 -0.01 0.01 -0.01 0.02 0 0.01 -0.01 0.01 -0.01 0.01 0 0.01 -0.01 0.01 -0.01 0.01 -0.01 0 -0.01 0.01 -0.01 0.01 -0.01 0.01 -0.01 0.01 -0.01 0 -0.01 0.01 -0.01 0.01 -0.12 -0.21 0 0 0.01 0 0 -0.01 0 0 0.01 0 0 0 0 -0.01 0 0 0.01 0 0 0 0 -0.01 0 0 0.01 0 0 -0.01 0 0 0 0 0 -0.01 0 0 0.01 0 0 -0.01 0 0 0 -0.01 0 0 0 -0.01 0 0 0 -0.01 0.01 -0.01 0 0 0 -0.01 0 -0.01 0 0 0 -0.01 0 0z"/>
    </g>
    <path id="2" class="fil3" d="M8.99 4.01c0,0.35 -0.12,0.65 -0.37,0.89 -0.25,0.24 -0.54,0.36 -0.9,0.36 -0.34,0 -0.64,-0.12 -0.88,-0.35 -0.25,-0.24 -0.38,-0.53 -0.38,-0.87 0,-0.18 0.03,-0.35 0.1,-0.52 0.03,-0.08 0.08,-0.17 0.15,-0.27 0.25,-0.33 0.59,-0.49 1.02,-0.49 0.35,0 0.65,0.12 0.89,0.36 0.25,0.24 0.37,0.54 0.37,0.89zm-0.61 0c0,-0.19 -0.06,-0.36 -0.18,-0.49 -0.12,-0.15 -0.28,-0.22 -0.47,-0.22 -0.19,0 -0.35,0.07 -0.48,0.21 -0.12,0.13 -0.18,0.3 -0.18,0.49 0,0.2 0.06,0.37 0.19,0.5 0.12,0.15 0.28,0.22 0.47,0.22 0.19,0 0.35,-0.07 0.47,-0.22 0.12,-0.13 0.18,-0.3 0.18,-0.49z"/>
    <path id="3" class="fil4" d="M11.32 3.62c0,0.11 -0.02,0.23 -0.06,0.34 -0.05,0.12 -0.11,0.22 -0.19,0.29 -0.1,0.08 -0.2,0.14 -0.33,0.17 -0.09,0.03 -0.21,0.04 -0.37,0.04l-0.26 0 0 0.75 -0.59 0 0 -2.41 0.78 0c0.08,0 0.14,0.01 0.2,0.01 0.07,0 0.13,0.01 0.19,0.02 0.15,0.03 0.26,0.08 0.35,0.15 0.19,0.16 0.28,0.37 0.28,0.64zm-0.58 0.01c0,-0.11 -0.05,-0.19 -0.13,-0.24 -0.06,-0.03 -0.15,-0.05 -0.28,-0.05l-0.22 0 0 0.58 0.24 0c0.12,0 0.21,-0.02 0.27,-0.06 0.08,-0.04 0.12,-0.12 0.12,-0.23z"/>
   </g>
   <g>
    <g>
     <polygon class="fil5" points="1.99,6.8 2.31,7.78 3.33,7.78 2.5,8.38 2.82,9.36 1.99,8.75 1.16,9.36 1.48,8.38 0.65,7.78 1.67,7.78 "/>
     <polygon class="fil6" points="1.99,6.8 1.99,8.08 2.31,7.78 3.33,7.78 1.99,8.08 2.5,8.38 2.82,9.36 1.99,8.08 1.99,8.75 1.16,9.36 1.99,8.08 1.48,8.38 0.65,7.78 1.99,8.08 1.67,7.78 "/>
    </g>
    <g>
     <polygon class="fil5" points="4.7,6.8 5.02,7.78 6.05,7.78 5.21,8.38 5.53,9.36 4.7,8.75 3.87,9.36 4.19,8.38 3.36,7.78 4.39,7.78 "/>
     <polygon class="fil6" points="4.7,6.8 4.7,8.08 5.02,7.78 6.05,7.78 4.7,8.08 5.21,8.38 5.53,9.36 4.7,8.08 4.7,8.75 3.87,9.36 4.7,8.08 4.19,8.38 3.36,7.78 4.7,8.08 4.39,7.78 "/>
    </g>
    <g>
     <polygon class="fil5" points="7.42,6.8 7.73,7.78 8.76,7.78 7.93,8.38 8.25,9.36 7.42,8.75 6.59,9.36 6.91,8.38 6.07,7.78 7.1,7.78 "/>
     <polygon class="fil6" points="7.42,6.8 7.42,8.08 7.73,7.78 8.76,7.78 7.42,8.08 7.93,8.38 8.25,9.36 7.42,8.08 7.42,8.75 6.59,9.36 7.42,8.08 6.91,8.38 6.07,7.78 7.42,8.08 7.1,7.78 "/>
    </g>
    <g>
     <polygon class="fil5" points="10.13,6.8 10.44,7.78 11.47,7.78 10.64,8.38 10.96,9.36 10.13,8.75 9.3,9.36 9.62,8.38 8.79,7.78 9.81,7.78 "/>
     <polygon class="fil6" points="10.13,6.8 10.13,8.08 10.44,7.78 11.47,7.78 10.13,8.08 10.64,8.38 10.96,9.36 10.13,8.08 10.13,8.75 9.3,9.36 10.13,8.08 9.62,8.38 8.79,7.78 10.13,8.08 9.81,7.78 "/>
    </g>
   </g>
   <path class="fil7" d="M0.62 6.07c0,0.06 -0.02,0.1 -0.05,0.14 -0.04,0.04 -0.09,0.06 -0.14,0.06 -0.06,0 -0.1,-0.02 -0.14,-0.06 -0.04,-0.03 -0.06,-0.08 -0.06,-0.13 0,-0.03 0.01,-0.06 0.02,-0.08 0,-0.01 0.01,-0.03 0.02,-0.04 0.04,-0.05 0.09,-0.08 0.16,-0.08 0.05,0 0.1,0.02 0.14,0.06 0.03,0.03 0.05,0.08 0.05,0.13zm-0.09 0c0,-0.03 -0.01,-0.05 -0.03,-0.07 -0.02,-0.02 -0.04,-0.03 -0.07,-0.03 -0.03,0 -0.06,0.01 -0.07,0.03 -0.02,0.02 -0.03,0.04 -0.03,0.07 0,0.03 0.01,0.06 0.03,0.08 0.02,0.02 0.04,0.03 0.07,0.03 0.03,0 0.05,-0.01 0.07,-0.03 0.02,-0.02 0.03,-0.05 0.03,-0.08z"/>
   <polygon id="1" class="fil7" points="0.93,6.26 0.79,6.03 0.79,6.03 0.79,6.26 0.7,6.26 0.7,5.89 0.79,5.89 0.93,6.12 0.93,6.12 0.92,5.89 1.01,5.89 1.01,6.26 "/>
   <polygon id="2" class="fil7" points="1.11,6.26 1.11,5.89 1.32,5.89 1.32,5.97 1.2,5.97 1.2,6.03 1.31,6.03 1.31,6.11 1.2,6.11 1.2,6.18 1.32,6.18 1.32,6.26 "/>
   <path id="3" class="fil7" d="M1.89 6.12c-0.01,0.04 -0.03,0.08 -0.06,0.11 -0.04,0.02 -0.08,0.04 -0.12,0.04 -0.06,0 -0.1,-0.02 -0.14,-0.06 -0.04,-0.04 -0.06,-0.08 -0.06,-0.14 0,-0.05 0.02,-0.1 0.06,-0.13 0.04,-0.04 0.08,-0.06 0.14,-0.06 0.07,0 0.12,0.03 0.16,0.09 0.01,0.02 0.02,0.04 0.02,0.06l-0.09 0c-0.02,-0.04 -0.05,-0.06 -0.09,-0.06 -0.03,0 -0.06,0.01 -0.07,0.03 -0.02,0.02 -0.03,0.04 -0.03,0.07 0,0.03 0.01,0.06 0.03,0.08 0.01,0.02 0.04,0.03 0.07,0.03 0.04,0 0.07,-0.02 0.09,-0.06l0.09 0z"/>
   <path id="4" class="fil7" d="M2.35 6.07c0,0.06 -0.02,0.1 -0.06,0.14 -0.04,0.04 -0.08,0.06 -0.14,0.06 -0.05,0 -0.1,-0.02 -0.13,-0.06 -0.04,-0.03 -0.06,-0.08 -0.06,-0.13 0,-0.03 0,-0.06 0.01,-0.08 0.01,-0.01 0.02,-0.03 0.03,-0.04 0.03,-0.05 0.09,-0.08 0.15,-0.08 0.06,0 0.1,0.02 0.14,0.06 0.04,0.03 0.06,0.08 0.06,0.13zm-0.1 0c0,-0.03 -0.01,-0.05 -0.02,-0.07 -0.02,-0.02 -0.05,-0.03 -0.08,-0.03 -0.03,0 -0.05,0.01 -0.07,0.03 -0.02,0.02 -0.03,0.04 -0.03,0.07 0,0.03 0.01,0.06 0.03,0.08 0.02,0.02 0.04,0.03 0.07,0.03 0.03,0 0.06,-0.01 0.08,-0.03 0.01,-0.02 0.02,-0.05 0.02,-0.08z"/>
   <polygon id="5" class="fil7" points="2.73,6.26 2.73,5.98 2.73,5.98 2.65,6.26 2.59,6.26 2.51,5.98 2.51,5.98 2.51,6.26 2.43,6.26 2.43,5.89 2.55,5.89 2.62,6.13 2.62,6.13 2.7,5.89 2.82,5.89 2.82,6.26 "/>
   <polygon id="6" class="fil7" points="3.22,6.26 3.22,5.98 3.22,5.98 3.14,6.26 3.08,6.26 3,5.98 3,5.98 3,6.26 2.91,6.26 2.91,5.89 3.04,5.89 3.11,6.13 3.11,6.13 3.18,5.89 3.3,5.89 3.3,6.26 "/>
   <path id="7" class="fil7" d="M3.68 6.11c0,0.03 0,0.05 0,0.06 -0.01,0.02 -0.02,0.04 -0.03,0.06 -0.03,0.02 -0.07,0.04 -0.11,0.04 -0.02,0 -0.04,-0.01 -0.06,-0.01 -0.01,-0.01 -0.03,-0.02 -0.04,-0.03 -0.02,-0.02 -0.03,-0.04 -0.03,-0.06 -0.01,-0.01 -0.01,-0.01 -0.01,-0.03 0,0 0,-0.01 0,-0.03l0 -0.22 0.09 0 0 0.22c0,0.01 0,0.02 0,0.03 0.01,0.01 0.01,0.01 0.01,0.02 0.01,0.02 0.02,0.02 0.04,0.02 0.02,0 0.03,0 0.04,-0.02 0,-0.01 0.01,-0.01 0.01,-0.02 0,-0.01 0,-0.02 0,-0.03l0 -0.22 0.09 0 0 0.22z"/>
   <polygon id="8" class="fil7" points="4.01,6.26 3.87,6.03 3.87,6.03 3.87,6.26 3.78,6.26 3.78,5.89 3.86,5.89 4,6.12 4,6.12 4,5.89 4.09,5.89 4.09,6.26 "/>
   <polygon id="9" class="fil7" points="4.19,6.26 4.19,5.89 4.39,5.89 4.39,5.97 4.28,5.97 4.28,6.03 4.39,6.03 4.39,6.11 4.28,6.11 4.28,6.18 4.39,6.18 4.39,6.26 "/>
   <path id="10" class="fil7" d="M4.98 6.07c0,0.06 -0.02,0.1 -0.06,0.14 -0.04,0.04 -0.08,0.06 -0.14,0.06 -0.05,0 -0.1,-0.02 -0.13,-0.06 -0.04,-0.03 -0.06,-0.08 -0.06,-0.13 0,-0.03 0,-0.06 0.01,-0.08 0.01,-0.01 0.01,-0.03 0.03,-0.04 0.03,-0.05 0.09,-0.08 0.15,-0.08 0.06,0 0.1,0.02 0.14,0.06 0.04,0.03 0.06,0.08 0.06,0.13zm-0.1 0c0,-0.03 -0.01,-0.05 -0.03,-0.07 -0.01,-0.02 -0.04,-0.03 -0.07,-0.03 -0.03,0 -0.05,0.01 -0.07,0.03 -0.02,0.02 -0.03,0.04 -0.03,0.07 0,0.03 0.01,0.06 0.03,0.08 0.02,0.02 0.04,0.03 0.07,0.03 0.03,0 0.06,-0.01 0.07,-0.03 0.02,-0.02 0.03,-0.05 0.03,-0.08z"/>
   <polygon id="11" class="fil7" points="5.29,6.26 5.15,6.03 5.15,6.03 5.15,6.26 5.06,6.26 5.06,5.89 5.14,5.89 5.28,6.12 5.28,6.12 5.28,5.89 5.37,5.89 5.37,6.26 "/>
   <polygon id="12" class="fil7" points="5.47,6.26 5.47,5.89 5.67,5.89 5.67,5.97 5.56,5.97 5.56,6.03 5.67,6.03 5.67,6.11 5.56,6.11 5.56,6.18 5.67,6.18 5.67,6.26 "/>
   <path id="13" class="fil7" d="M6.16 6.01c0,0.02 0,0.04 -0.01,0.06 -0.01,0.02 -0.02,0.03 -0.03,0.04 -0.01,0.01 -0.03,0.02 -0.05,0.03 -0.01,0 -0.03,0 -0.06,0l-0.04 0 0 0.12 -0.09 0 0 -0.37 0.12 0c0.02,0 0.02,0 0.03,0 0.01,0 0.02,0 0.03,0 0.03,0.01 0.04,0.02 0.06,0.03 0.03,0.02 0.04,0.05 0.04,0.09zm-0.09 0.01c0,-0.02 -0.01,-0.03 -0.02,-0.04 -0.01,-0.01 -0.02,-0.01 -0.04,-0.01l-0.04 0 0 0.09 0.04 0c0.02,0 0.03,0 0.04,-0.01 0.01,-0.01 0.02,-0.02 0.02,-0.03z"/>
   <path id="14" class="fil7" d="M6.41 6.26l-0.09 -0.12 0 0 0 0.12 -0.09 0 0 -0.37 0.12 0c0.01,0 0.02,0 0.03,0 0.01,0 0.02,0 0.03,0 0.02,0.01 0.04,0.01 0.05,0.03 0.03,0.02 0.05,0.05 0.05,0.1 0,0.03 -0.01,0.05 -0.03,0.07 -0.02,0.02 -0.04,0.04 -0.07,0.04l0.1 0.13 -0.1 0zm0.01 -0.24c0,-0.01 -0.01,-0.03 -0.02,-0.04 -0.01,0 -0.03,-0.01 -0.05,-0.01l-0.03 0 0 0.1 0.03 0c0.04,0 0.07,-0.01 0.07,-0.05z"/>
   <path id="15" class="fil7" d="M6.96 6.07c0,0.06 -0.02,0.1 -0.06,0.14 -0.04,0.04 -0.08,0.06 -0.14,0.06 -0.05,0 -0.09,-0.02 -0.13,-0.06 -0.04,-0.03 -0.06,-0.08 -0.06,-0.13 0,-0.03 0,-0.06 0.01,-0.08 0.01,-0.01 0.02,-0.03 0.03,-0.04 0.04,-0.05 0.09,-0.08 0.15,-0.08 0.06,0 0.1,0.02 0.14,0.06 0.04,0.03 0.06,0.08 0.06,0.13zm-0.1 0c0,-0.03 0,-0.05 -0.02,-0.07 -0.02,-0.02 -0.05,-0.03 -0.08,-0.03 -0.02,0 -0.05,0.01 -0.07,0.03 -0.02,0.02 -0.03,0.04 -0.03,0.07 0,0.03 0.01,0.06 0.03,0.08 0.02,0.02 0.05,0.03 0.08,0.03 0.02,0 0.05,-0.01 0.07,-0.03 0.02,-0.02 0.02,-0.05 0.02,-0.08z"/>
   <path id="16" class="fil7" d="M7.35 6.07c0,0.13 -0.06,0.19 -0.19,0.19l-0.12 0 0 -0.37 0.12 0c0.02,0 0.03,0 0.04,0 0.02,0 0.03,0.01 0.05,0.01 0.03,0.01 0.05,0.03 0.07,0.06 0.02,0.03 0.03,0.07 0.03,0.11zm-0.09 0c0,-0.03 -0.01,-0.05 -0.02,-0.07 -0.02,-0.02 -0.04,-0.03 -0.07,-0.03l-0.04 0 0 0.21 0.04 0c0.03,0 0.05,-0.01 0.07,-0.03 0.01,-0.02 0.02,-0.04 0.02,-0.08z"/>
   <path id="17" class="fil7" d="M7.72 6.11c0,0.03 0,0.05 0,0.06 -0.01,0.02 -0.02,0.04 -0.03,0.06 -0.03,0.02 -0.07,0.04 -0.11,0.04 -0.02,0 -0.04,-0.01 -0.06,-0.01 -0.01,-0.01 -0.03,-0.02 -0.04,-0.03 -0.02,-0.02 -0.03,-0.04 -0.03,-0.06 -0.01,-0.01 -0.01,-0.01 -0.01,-0.03 0,0 0,-0.01 0,-0.03l0 -0.22 0.09 0 0 0.22c0,0.01 0,0.02 0,0.03 0.01,0.01 0.01,0.01 0.01,0.02 0.01,0.02 0.02,0.02 0.04,0.02 0.02,0 0.03,0 0.04,-0.02 0,-0.01 0.01,-0.01 0.01,-0.02 0,-0.01 0,-0.02 0,-0.03l0 -0.22 0.09 0 0 0.22z"/>
   <path id="18" class="fil7" d="M8.18 6.12c-0.01,0.04 -0.03,0.08 -0.06,0.11 -0.04,0.02 -0.08,0.04 -0.12,0.04 -0.06,0 -0.1,-0.02 -0.14,-0.06 -0.04,-0.04 -0.06,-0.08 -0.06,-0.14 0,-0.05 0.02,-0.1 0.06,-0.13 0.04,-0.04 0.08,-0.06 0.14,-0.06 0.07,0 0.12,0.03 0.16,0.09 0.01,0.02 0.02,0.04 0.02,0.06l-0.09 0c-0.02,-0.04 -0.05,-0.06 -0.09,-0.06 -0.03,0 -0.06,0.01 -0.08,0.03 -0.01,0.02 -0.02,0.04 -0.02,0.07 0,0.03 0.01,0.06 0.02,0.08 0.02,0.02 0.05,0.03 0.08,0.03 0.04,0 0.07,-0.02 0.09,-0.06l0.09 0z"/>
   <polygon id="19" class="fil7" points="8.4,5.97 8.4,6.26 8.31,6.26 8.31,5.97 8.23,5.97 8.23,5.89 8.47,5.89 8.47,5.97 "/>
   <path id="20" class="fil7" d="M9.04 6.07c0,0.06 -0.02,0.1 -0.06,0.14 -0.04,0.04 -0.08,0.06 -0.14,0.06 -0.05,0 -0.1,-0.02 -0.13,-0.06 -0.04,-0.03 -0.06,-0.08 -0.06,-0.13 0,-0.03 0,-0.06 0.01,-0.08 0.01,-0.01 0.02,-0.03 0.03,-0.04 0.04,-0.05 0.09,-0.08 0.15,-0.08 0.06,0 0.1,0.02 0.14,0.06 0.04,0.03 0.06,0.08 0.06,0.13zm-0.1 0c0,-0.03 -0.01,-0.05 -0.02,-0.07 -0.02,-0.02 -0.05,-0.03 -0.08,-0.03 -0.03,0 -0.05,0.01 -0.07,0.03 -0.02,0.02 -0.03,0.04 -0.03,0.07 0,0.03 0.01,0.06 0.03,0.08 0.02,0.02 0.04,0.03 0.07,0.03 0.03,0 0.06,-0.01 0.08,-0.03 0.01,-0.02 0.02,-0.05 0.02,-0.08z"/>
   <polygon id="21" class="fil7" points="9.21,5.97 9.21,6.03 9.32,6.03 9.32,6.12 9.21,6.12 9.21,6.26 9.12,6.26 9.12,5.89 9.32,5.89 9.32,5.97 "/>
   <polygon id="22" class="fil7" points="9.72,6.26 9.62,6.26 9.5,5.89 9.6,5.89 9.67,6.15 9.67,6.15 9.75,5.89 9.84,5.89 "/>
   <polygon id="23" class="fil7" points="9.91,6.26 9.91,5.89 10.01,5.89 10.01,6.26 "/>
   <polygon id="24" class="fil7" points="10.11,6.26 10.11,5.89 10.31,5.89 10.31,5.97 10.2,5.97 10.2,6.03 10.31,6.03 10.31,6.11 10.2,6.11 10.2,6.18 10.31,6.18 10.31,6.26 "/>
   <polygon id="25" class="fil7" points="10.54,5.97 10.54,6.26 10.44,6.26 10.44,5.97 10.37,5.97 10.37,5.89 10.61,5.89 10.61,5.97 "/>
   <polygon id="26" class="fil7" points="10.91,6.26 10.77,6.03 10.77,6.03 10.77,6.26 10.68,6.26 10.68,5.89 10.76,5.89 10.9,6.12 10.9,6.12 10.9,5.89 10.99,5.89 10.99,6.26 "/>
   <path id="27" class="fil7" d="M11.32 6.26l-0.01 -0.06 -0.13 0 -0.02 0.06 -0.1 0 0.15 -0.37 0.07 0 0.15 0.37 -0.11 0zm-0.08 -0.26l0 0 -0.04 0.13 0.08 0 -0.04 -0.13z"/>
   <polygon id="28" class="fil7" points="11.8,6.26 11.8,5.98 11.8,5.98 11.72,6.26 11.66,6.26 11.58,5.98 11.58,5.98 11.58,6.26 11.5,6.26 11.5,5.89 11.62,5.89 11.69,6.13 11.69,6.13 11.76,5.89 11.88,5.89 11.88,6.26 "/>
  </g>
  <rect class="fil8" width="12.12" height="12.12"/>
 </g>
</svg>
